<?xml version="1.0" encoding="UTF-8"?>
<svg width="22px" height="22px" viewBox="0 0 22 22" version="1.1" xmlns="http://www.w3.org/2000/svg" xmlns:xlink="http://www.w3.org/1999/xlink">
    <!-- Generator: Sketch 58 (84663) - https://sketch.com -->
    <title>公共/白色返回</title>
    <desc>Created with Sketch.</desc>
    <g id="页面-1" stroke="none" stroke-width="1" fill="none" fill-rule="evenodd">
        <g id="首页-客厅（有设备）" transform="translate(-6.000000, -56.000000)">
            <g id="编组" transform="translate(6.000000, 54.000000)">
                <g id="编组-2" transform="translate(0.000000, 2.000000)">
                    <g id="公共/白色进入箭头" transform="translate(11.000000, 11.000000) rotate(-180.000000) translate(-11.000000, -11.000000) ">
                        <g id="公共/进入箭头">
                            <rect id="矩形" stroke="#979797" fill="#D8D8D8" opacity="0" x="0" y="0" width="22" height="22"></rect>
                            <g id="jiantou" transform="translate(6.111111, 3.055556)" fill="#FFFFFF" fill-rule="nonzero">
                                <path d="M1.33863577,15.3866729 C1.03091078,15.6644802 0.533374123,15.6624031 0.227949896,15.3819995 C-0.077429114,15.1007129 -0.0753777534,14.6500003 0.232551382,14.3709887 L7.54260153,7.7747535 L0.234276948,1.22421367 C-0.0749267194,0.946175677 -0.0785184943,0.495226304 0.22622433,0.213202894 C0.371792675,0.0782495202 0.571118844,0.00148450446 0.779766451,-2.06941599e-05 C0.988414058,-0.00144189563 1.18903715,0.0725183633 1.33691022,0.205413897 L8.94979262,7.02898032 C9.36105466,7.39760205 9.39562147,8.02982276 9.02699974,8.4410848 C9.00343891,8.46737103 8.97850276,8.49239128 8.95229601,8.51604047 L1.33863577,15.3866729 L1.33863577,15.3866729 Z" id="路径"></path>
                            </g>
                        </g>
                    </g>
                </g>
            </g>
        </g>
    </g>
</svg>