<?xml version="1.0" encoding="UTF-8"?>
<svg width="44px" height="44px" viewBox="0 0 44 44" version="1.1" xmlns="http://www.w3.org/2000/svg" xmlns:xlink="http://www.w3.org/1999/xlink">
    <!-- Generator: Sketch 58 (84663) - https://sketch.com -->
    <title>首页/添加icon</title>
    <desc>Created with Sketch.</desc>
    <g id="页面-1" stroke="none" stroke-width="1" fill="none" fill-rule="evenodd">
        <g id="未登录-首页" transform="translate(-315.000000, -44.000000)">
            <g id="我的设备" transform="translate(12.000000, 44.000000)">
                <g id="首页/添加icon" transform="translate(303.000000, 0.000000)">
                    <g id="编组-9">
                        <rect id="矩形" opacity="0" x="0" y="0" width="44" height="44"></rect>
                        <circle id="椭圆形" fill="#FFFFFF" cx="22" cy="22" r="15.8888889"></circle>
                        <g id="编组" transform="translate(14.666667, 14.666667)" fill="#32BAC0">
                            <path d="M1.08307692,6.11111111 L13.5835897,6.11111111 C14.1817566,6.11111111 14.6666667,6.57076543 14.6666667,7.13777778 C14.6666667,7.70479012 14.1817566,8.16444444 13.5835897,8.16444444 L1.08307692,8.16444444 C0.484910056,8.16444444 0,7.70479012 0,7.13777778 C0,6.57076543 0.484910056,6.11111111 1.08307692,6.11111111 Z" id="矩形"></path>
                            <path d="M6.11111111,13.5835897 L6.11111111,1.08307692 C6.11111111,0.484910056 6.57076543,0 7.13777778,0 C7.70479012,0 8.16444444,0.484910056 8.16444444,1.08307692 L8.16444444,13.5835897 C8.16444444,14.1817566 7.70479012,14.6666667 7.13777778,14.6666667 C6.57076543,14.6666667 6.11111111,14.1817566 6.11111111,13.5835897 Z" id="矩形备份-6"></path>
                        </g>
                    </g>
                </g>
            </g>
        </g>
    </g>
</svg>