<?xml version="1.0" encoding="UTF-8"?>
<svg width="66px" height="66px" viewBox="0 0 66 66" version="1.1" xmlns="http://www.w3.org/2000/svg" xmlns:xlink="http://www.w3.org/1999/xlink">
    <!-- Generator: Sketch 58 (84663) - https://sketch.com -->
    <title>公共/报修</title>
    <desc>Created with Sketch.</desc>
    <g id="页面-1" stroke="none" stroke-width="1" fill="none" fill-rule="evenodd">
        <g id="净水器-设备界面" transform="translate(-33.000000, -700.000000)">
            <g id="报修" transform="translate(33.000000, 700.000000)">
                <g id="公共/报修">
                    <g>
                        <rect id="矩形" fill="#D8D8D8" opacity="0" x="0" y="0" width="66" height="66"></rect>
                        <circle id="椭圆形" fill-opacity="0.1" fill="#999999" cx="33" cy="33" r="23.8333333"></circle>
                        <g id="weixiu" transform="translate(32.583333, 33.416667) scale(-1, 1) translate(-32.583333, -33.416667) translate(16.583333, 17.416667)" fill="#999999" fill-rule="nonzero">
                            <path d="M4.50254498,31.0952296 C3.4712358,31.0952296 2.25378788,30.5418442 1.39352509,29.6866122 C0.508108428,28.8011955 0.0201231061,27.6692708 0.0201231061,26.5021307 C0.0201231061,25.3349905 0.508108428,24.198035 1.39352509,23.3176491 L12.088956,12.7731416 C11.9028172,12.2046638 11.7669863,11.6261245 11.6412169,10.8614465 C11.3041548,8.08445786 12.1593868,5.33765388 13.9754972,3.28509706 C15.8066998,1.21744792 18.4327652,0.0301846591 21.1795691,0.0301846591 C22.0398319,0.0301846591 23.1164181,0.0301846591 24.0923887,0.422585227 C24.6608665,0.704308712 25.0230824,1.20235559 25.1136364,1.76077178 C25.189098,2.21354167 25.0582978,2.64115767 24.761482,2.93797348 L20.7048169,6.99035492 C20.343798,7.35030351 20.3157423,7.91749331 20.6205579,8.30994355 L20.7044434,8.40419485 L22.3590035,10.058755 C22.7495278,10.4492793 23.3826928,10.4492793 23.7732171,10.058755 L27.9459635,5.88600852 L28.1019176,5.81054687 C28.6804569,5.51876184 29.1483191,5.57410038 29.4401042,5.67471591 C29.8123816,5.80048532 30.1242898,6.07214725 30.3053977,6.44442472 L30.3406132,6.52491714 C30.6927675,7.40530303 30.8688447,8.42151989 31.0348603,9.77479877 L31.0449219,9.90559896 C31.0449219,12.5970644 29.9431818,15.0872988 27.9409328,16.9185014 C25.8934067,18.7849195 23.1164181,19.7156132 20.2941525,19.4540128 L20.1834754,19.4389205 C19.5747514,19.3181818 18.9509351,19.1924124 18.3120265,18.9911813 L7.77254972,29.6815814 C6.87204072,30.5820904 5.67974669,31.0952296 4.50254498,31.0952296 Z M22.6333941,2.09764955 C22.3529338,2.05584623 22.0609422,2.0382582 21.6092736,2.03250566 L21.1795691,2.03018466 C19.0069816,2.03018466 16.9254381,2.97082073 15.4733501,4.61040325 C14.032242,6.2391349 13.3592407,8.4173663 13.614702,10.5368601 C13.7244532,11.2041474 13.8371189,11.6849191 13.9896598,12.1507872 L14.3750646,13.3278343 L2.80370384,24.7358861 C2.29112211,25.2455554 2.02012311,25.8747125 2.02012311,26.5021307 C2.02012311,27.1282589 2.2904386,27.7550986 2.80358534,28.2682575 C3.30629922,28.7680315 4.027813,29.0952296 4.50254498,29.0952296 C5.14016131,29.0952296 5.82708135,28.7986227 6.34831849,28.277457 L17.7463856,16.7161718 L18.9128513,17.0835625 C19.2029427,17.1749299 19.4714156,17.2452483 19.8497889,17.3280883 L20.516214,17.4659357 C22.7586358,17.6633855 24.9658357,16.9242154 26.5911636,15.4426549 C28.1620671,14.0059491 29.0255884,12.0782604 29.044601,9.97657347 L28.9707702,9.4124405 C28.9095844,8.97330814 28.8487657,8.6090109 28.7846952,8.29996643 L28.7060181,7.95438112 L25.1874307,11.4729685 C24.0158578,12.6445414 22.1163629,12.6445414 20.94479,11.4729685 L19.4572918,9.98547034 C19.3946194,9.94009294 19.3522046,9.89104909 19.2887361,9.81766094 C18.1173838,8.64507043 18.1187345,6.74453289 19.2913506,5.57539448 L22.7533172,2.11708392 L22.6333941,2.09764955 Z" id="路径备份-5"></path>
                        </g>
                    </g>
                </g>
            </g>
        </g>
    </g>
</svg>