<?xml version="1.0" encoding="UTF-8"?>
<svg width="46px" height="46px" viewBox="0 0 46 46" version="1.1" xmlns="http://www.w3.org/2000/svg" xmlns:xlink="http://www.w3.org/1999/xlink">
    <!-- Generator: Sketch 58 (84663) - https://sketch.com -->
    <title>餐厅</title>
    <desc>Created with Sketch.</desc>
    <g id="页面-1" stroke="none" stroke-width="1" fill="none" fill-rule="evenodd">
        <g id="添加房间" transform="translate(-210.000000, -165.000000)">
            <g id="组件备份" transform="translate(12.000000, 150.000000)">
                <g id="餐厅" transform="translate(183.000000, 0.000000)">
                    <g id="客厅">
                        <g id="编组" transform="translate(15.000000, 15.000000)">
                            <g id="公共/添加房间/餐厅">
                                <g>
                                    <rect id="矩形" stroke="#979797" fill="#D8D8D8" opacity="0" x="0" y="0" width="46" height="46"></rect>
                                    <g id="编组" transform="translate(11.500000, 6.388889)" fill="#666666">
                                        <rect id="矩形" x="18.009" y="13.8" width="1.932" height="5.52"></rect>
                                        <path d="M16.652,0.966 L16.652,12.42 L16.652,12.42 C16.652,12.6232408 16.8167592,12.788 17.02,12.788 L20.7,12.788 C20.9032408,12.788 21.068,12.6232408 21.068,12.42 L21.068,0.966 C21.068,0.432492932 21.5004929,9.16994219e-14 22.034,8.97060204e-14 C22.5675071,8.96080167e-14 23,0.432492932 23,0.966 L23,12.42 L23,12.42 C23,13.6902549 21.9702549,14.72 20.7,14.72 L17.02,14.72 C15.7497451,14.72 14.72,13.6902549 14.72,12.42 L14.72,0.966 C14.72,0.432492932 15.1524929,8.9804024e-14 15.686,8.97060204e-14 C16.2195071,8.96080167e-14 16.652,0.432492932 16.652,0.966 Z" id="路径" fill-rule="nonzero"></path>
                                        <rect id="矩形" x="18.009" y="1.82964754e-13" width="1.932" height="11.04" rx="0.84"></rect>
                                        <path d="M4.324,17.434 L7.774,17.434 C8.94263453,17.434 9.89,18.3813655 9.89,19.55 L9.89,31.97 C9.89,33.1386345 8.94263453,34.086 7.774,34.086 L4.324,34.086 C3.15536547,34.086 2.208,33.1386345 2.208,31.97 L2.208,19.55 C2.208,18.3813655 3.15536547,17.434 4.324,17.434 Z M4.324,19.366 C4.22237961,19.366 4.14,19.4483796 4.14,19.55 L4.14,31.97 C4.14,32.0716204 4.22237961,32.154 4.324,32.154 L7.774,32.154 C7.87562039,32.154 7.958,32.0716204 7.958,31.97 L7.958,19.55 C7.958,19.4483796 7.87562039,19.366 7.774,19.366 L4.324,19.366 Z" id="矩形" fill-rule="nonzero"></path>
                                        <path d="M17.25,17.434 L20.7,17.434 C21.8686345,17.434 22.816,18.3813655 22.816,19.55 L22.816,31.97 C22.816,33.1386345 21.8686345,34.086 20.7,34.086 L17.25,34.086 C16.0813655,34.086 15.134,33.1386345 15.134,31.97 L15.134,19.55 C15.134,18.3813655 16.0813655,17.434 17.25,17.434 Z M17.25,19.366 C17.1483796,19.366 17.066,19.4483796 17.066,19.55 L17.066,31.97 C17.066,32.0716204 17.1483796,32.154 17.25,32.154 L20.7,32.154 C20.8016204,32.154 20.884,32.0716204 20.884,31.97 L20.884,19.55 C20.884,19.4483796 20.8016204,19.366 20.7,19.366 L17.25,19.366 Z" id="矩形备份-7" fill-rule="nonzero"></path>
                                        <rect id="矩形" x="5.083" y="13.8" width="1.932" height="4.6"></rect>
                                        <path d="M5.98,14.72 C9.2826628,14.72 11.96,11.4248158 11.96,7.36 C11.96,3.29518424 9.2826628,9.05941988e-14 5.98,9.05941988e-14 C2.6773372,9.05941988e-14 3.55271368e-15,3.29518424 3.55271368e-15,7.36 C3.55271368e-15,11.4248158 2.6773372,14.72 5.98,14.72 Z M5.98,12.788 C3.84306222,12.788 1.932,10.4359234 1.932,7.36 C1.932,4.28407658 3.84306222,1.932 5.98,1.932 C8.11693778,1.932 10.028,4.28407658 10.028,7.36 C10.028,10.4359234 8.11693778,12.788 5.98,12.788 Z" id="椭圆形" fill-rule="nonzero"></path>
                                    </g>
                                </g>
                            </g>
                        </g>
                    </g>
                </g>
            </g>
        </g>
    </g>
</svg>