<?xml version="1.0" encoding="UTF-8"?>
<svg width="66px" height="66px" viewBox="0 0 66 66" version="1.1" xmlns="http://www.w3.org/2000/svg" xmlns:xlink="http://www.w3.org/1999/xlink">
    <!-- Generator: Sketch 58 (84663) - https://sketch.com -->
    <title>公共/冲洗</title>
    <desc>Created with Sketch.</desc>
    <g id="页面-1" stroke="none" stroke-width="1" fill="none" fill-rule="evenodd">
        <g id="净水器-设备界面" transform="translate(-276.000000, -700.000000)">
            <g id="冲洗" transform="translate(276.000000, 700.000000)">
                <g id="公共/冲洗">
                    <g>
                        <rect id="矩形" fill="#D8D8D8" opacity="0" x="0" y="0" width="66" height="66"></rect>
                        <circle id="椭圆形" fill-opacity="0.1" fill="#999999" cx="33" cy="33" r="23.8333333"></circle>
                        <g id="编组-12" transform="translate(19.250000, 16.866667)" fill="#999999">
                            <path d="M13.7419118,25.0722188 C15.1936897,25.0722188 16.3705882,23.8953203 16.3705882,22.4435423 C16.3705882,21.4756904 15.4943627,19.9258822 13.7419118,17.7941176 C11.9894608,19.9258822 11.1132353,21.4756904 11.1132353,22.4435423 C11.1132353,23.8953203 12.2901338,25.0722188 13.7419118,25.0722188 Z M15.1705882,22.4435423 C15.1705882,23.2325786 14.530948,23.8722188 13.7419118,23.8722188 C12.9528755,23.8722188 12.3132353,23.2325786 12.3132353,22.4435423 C12.3132353,22.0352549 12.6805217,21.2582632 13.4242994,20.1872169 L13.7419118,19.7432925 C14.6988293,21.0445106 15.1705882,21.9808165 15.1705882,22.4435423 Z" id="椭圆形备份" fill-rule="nonzero"></path>
                            <path d="M13.7419118,30.9210384 C14.7469888,30.9210384 15.5617647,30.1062625 15.5617647,29.1011854 C15.5617647,28.4311341 14.9551471,27.3581899 13.7419118,25.8823529 C12.5286765,27.3581899 11.9220588,28.4311341 11.9220588,29.1011854 C11.9220588,30.1062625 12.7368347,30.9210384 13.7419118,30.9210384 Z M14.3617647,29.1011854 C14.3617647,29.4435208 14.0842471,29.7210384 13.7419118,29.7210384 C13.3995764,29.7210384 13.1220588,29.4435208 13.1220588,29.1011854 C13.1220588,28.9305114 13.2908226,28.5598877 13.63379,28.03343 L13.7419118,27.8708617 C14.1575605,28.4837635 14.3617647,28.913444 14.3617647,29.1011854 Z" id="椭圆形备份-7" fill-rule="nonzero"></path>
                            <path d="M18.9669118,30.9210384 C19.9719888,30.9210384 20.7867647,30.1062625 20.7867647,29.1011854 C20.7867647,28.4311341 20.1801471,27.3581899 18.9669118,25.8823529 C17.7536765,27.3581899 17.1470588,28.4311341 17.1470588,29.1011854 C17.1470588,30.1062625 17.9618347,30.9210384 18.9669118,30.9210384 Z M19.5867647,29.1011854 C19.5867647,29.4435208 19.3092471,29.7210384 18.9669118,29.7210384 C18.6245764,29.7210384 18.3470588,29.4435208 18.3470588,29.1011854 C18.3470588,28.9305114 18.5158226,28.5598877 18.85879,28.03343 L18.9669118,27.8708617 C19.3825605,28.4837635 19.5867647,28.913444 19.5867647,29.1011854 Z" id="椭圆形备份-9" fill-rule="nonzero"></path>
                            <path d="M8.53308824,30.9210384 C9.53816526,30.9210384 10.3529412,30.1062625 10.3529412,29.1011854 C10.3529412,28.4311341 9.74632353,27.3581899 8.53308824,25.8823529 C7.31985294,27.3581899 6.71323529,28.4311341 6.71323529,29.1011854 C6.71323529,30.1062625 7.52801121,30.9210384 8.53308824,30.9210384 Z M9.15294118,29.1011854 C9.15294118,29.4435208 8.87542356,29.7210384 8.53308824,29.7210384 C8.19075291,29.7210384 7.91323529,29.4435208 7.91323529,29.1011854 C7.91323529,28.9305114 8.0819991,28.5598877 8.42496648,28.03343 L8.53308824,27.8708617 C8.94873697,28.4837635 9.15294118,28.913444 9.15294118,29.1011854 Z" id="椭圆形备份-8" fill-rule="nonzero"></path>
                            <path d="M18.3679027,13.6441962 L18.3679027,0 C18.3679027,-0.55228475 17.9201875,-1 17.3679027,-1 L15.6032756,-1 C15.3834642,-1 15.1697765,-0.927575132 14.9952623,-0.793926852 L9.6187932,3.32353642 C9.37170644,3.51276295 9.22680648,3.80624221 9.22680648,4.11746327 L9.22680648,13.6421146 L-0.682125781,23.5325971 C-0.867822879,23.7179484 -0.97323656,23.9688558 -0.975636381,24.2312158 L-1.00000091,26.8901908 C-1.00504244,27.4460277 -0.55586019,27.8993374 -9.07809188e-07,27.8993374 L5.36637635,27.8993374 C5.9186611,27.8993374 6.36637635,27.4516222 6.36637635,26.8993374 C6.36637635,26.3470527 5.9186611,25.8993374 5.36637635,25.8993374 L1.00918889,25.8993374 L1.02053522,24.6589015 L10.933254,14.7646395 C11.1211936,14.5770498 11.2268065,14.3224135 11.2268065,14.0568741 L11.2268065,4.61119479 L15.9422043,1 L16.3679027,1 L16.3679027,14.0568741 C16.3679027,14.3211818 16.4725408,14.5747404 16.6589437,14.7621238 L26.4981096,24.6530404 L26.4981096,25.8993374 L22.1560957,25.8993374 C21.6038109,25.8993374 21.1560957,26.3470527 21.1560957,26.8993374 C21.1560957,27.4516222 21.6038109,27.8993374 22.1560957,27.8993374 L27.4981096,27.8993374 C28.0503943,27.8993374 28.4981096,27.4516222 28.4981096,26.8993374 L28.4981096,24.2403624 C28.4981096,23.9760547 28.3934715,23.7224961 28.2070686,23.5351128 L18.3679027,13.6441962 Z" id="路径-5" fill-rule="nonzero"></path>
                            <rect id="矩形" x="9.70588235" y="12.9705882" width="8.08823529" height="2"></rect>
                        </g>
                    </g>
                </g>
            </g>
        </g>
    </g>
</svg>