<?xml version="1.0" encoding="UTF-8"?>
<svg width="46px" height="46px" viewBox="0 0 46 46" version="1.1" xmlns="http://www.w3.org/2000/svg" xmlns:xlink="http://www.w3.org/1999/xlink">
    <!-- Generator: Sketch 58 (84663) - https://sketch.com -->
    <title>厨房</title>
    <desc>Created with Sketch.</desc>
    <g id="页面-1" stroke="none" stroke-width="1" fill="none" fill-rule="evenodd">
        <g id="添加房间" transform="translate(-119.000000, -285.000000)">
            <g id="组件备份" transform="translate(12.000000, 150.000000)">
                <g id="厨房" transform="translate(92.000000, 120.000000)">
                    <g id="客厅">
                        <g id="编组" transform="translate(15.000000, 15.000000)">
                            <g id="公共/添加房间/厨房">
                                <g id="编组-9">
                                    <g>
                                        <rect id="矩形" fill="#D8D8D8" opacity="0" x="0" y="0" width="46" height="46"></rect>
                                        <g id="编组-10" transform="translate(2.555556, 9.366111)" fill="#666666">
                                            <path d="M20.2597849,7.91397849 C22.4451698,7.91397849 24.2167742,6.14237406 24.2167742,3.95698925 C24.2167742,1.77160443 22.4451698,3.10862447e-15 20.2597849,3.10862447e-15 C18.0744001,3.10862447e-15 16.3027957,1.77160443 16.3027957,3.95698925 C16.3027957,6.14237406 18.0744001,7.91397849 20.2597849,7.91397849 Z M20.2597849,5.69806452 C19.2982156,5.69806452 18.5187097,4.91855857 18.5187097,3.95698925 C18.5187097,2.99541993 19.2982156,2.21591398 20.2597849,2.21591398 C21.2213543,2.21591398 22.0008602,2.99541993 22.0008602,3.95698925 C22.0008602,4.91855857 21.2213543,5.69806452 20.2597849,5.69806452 Z" id="椭圆形" fill-rule="nonzero"></path>
                                            <path d="M20.4444444,5.7772043 C30.1720555,5.7772043 38.0398566,13.9597175 38.0398566,24.0321147 C38.0398566,24.5014978 38.0227615,24.968844 37.9887375,25.4334807 C37.9463416,26.0124446 37.4642532,26.4605218 36.8837391,26.4605218 L4.00514977,26.4605218 C3.42463565,26.4605218 2.94254731,26.0124446 2.90015144,25.4334807 C2.86612741,24.968844 2.84903226,24.5014978 2.84903226,24.0321147 C2.84903226,13.9597175 10.7168334,5.7772043 20.4444444,5.7772043 Z M35.8239427,24.0321147 C35.8239427,15.1645102 28.9283735,7.99311828 20.4444444,7.99311828 C12.0910374,7.99311828 5.27749354,14.9455494 5.06982317,23.624065 L5.06494624,24.0321147 L5.0662667,24.2446078 L35.8226222,24.2446078 L35.8239427,24.0321147 Z" id="形状结合" fill-rule="nonzero"></path>
                                            <rect id="矩形" x="3.95698925" y="18.756129" width="31.655914" height="2.21591398"></rect>
                                            <rect id="矩形" x="0" y="24.2431541" width="40.8888889" height="2.21591398" rx="1"></rect>
                                        </g>
                                    </g>
                                </g>
                            </g>
                        </g>
                    </g>
                </g>
            </g>
        </g>
    </g>
</svg>