<?xml version="1.0" encoding="UTF-8"?>
<svg width="88px" height="88px" viewBox="0 0 88 88" version="1.1" xmlns="http://www.w3.org/2000/svg" xmlns:xlink="http://www.w3.org/1999/xlink">
    <!-- Generator: Sketch 58 (84663) - https://sketch.com -->
    <title>公共/开关-关</title>
    <desc>Created with Sketch.</desc>
    <g id="页面-1" stroke="none" stroke-width="1" fill="none" fill-rule="evenodd">
        <g id="净水器-设备界面" transform="translate(-141.000000, -681.000000)">
            <g id="开启" transform="translate(141.000000, 681.000000)">
                <g id="公共/开关-关">
                    <g>
                        <rect id="矩形" fill="#D8D8D8" opacity="0" x="0" y="0" width="88" height="88"></rect>
                        <g id="编组-10" transform="translate(12.222222, 12.222222)" fill="#999999">
                            <circle id="椭圆形" fill-opacity="0.1" cx="31.7777778" cy="31.7777778" r="31.7777778"></circle>
                            <path d="M31.6777778,9.77777778 C32.5062049,9.77777778 33.1777778,10.4493507 33.1777778,11.2777778 L33.1777778,30.5222222 C33.1777778,31.3506493 32.5062049,32.0222222 31.6777778,32.0222222 C30.8493507,32.0222222 30.1777778,31.3506493 30.1777778,30.5222222 L30.1777778,11.2777778 C30.1777778,10.4493507 30.8493507,9.77777778 31.6777778,9.77777778 Z" id="矩形"></path>
                            <path d="M20.652517,17.1010719 C15.9774586,20.592009 13.1666667,26.0746863 13.1666667,32.0222222 C13.1666667,42.3008551 21.4991449,50.6333333 31.7777778,50.6333333 C42.0564106,50.6333333 50.3888889,42.3008551 50.3888889,32.0222222 C50.3888889,26.1182455 47.6193436,20.6710887 43.001699,17.1752522 C42.3412025,16.6752164 41.4004051,16.8052955 40.9003692,17.465792 C40.4003334,18.1262885 40.5304125,19.0670859 41.190909,19.5671217 C45.0672867,22.5017742 47.3888889,27.0679141 47.3888889,32.0222222 C47.3888889,40.6440008 40.3995564,47.6333333 31.7777778,47.6333333 C23.1559992,47.6333333 16.1666667,40.6440008 16.1666667,32.0222222 C16.1666667,27.0314027 18.5228948,22.4353887 22.4474595,19.5048567 C23.1112464,19.009197 23.2475404,18.0692798 22.7518806,17.405493 C22.2562209,16.7417062 21.3163038,16.6054122 20.652517,17.1010719 Z" id="路径" fill-rule="nonzero"></path>
                        </g>
                    </g>
                </g>
            </g>
        </g>
    </g>
</svg>