<?xml version="1.0" encoding="UTF-8"?>
<svg width="46px" height="46px" viewBox="0 0 46 46" version="1.1" xmlns="http://www.w3.org/2000/svg" xmlns:xlink="http://www.w3.org/1999/xlink">
    <!-- Generator: Sketch 58 (84663) - https://sketch.com -->
    <title>公共/开关-关icon</title>
    <desc>Created with Sketch.</desc>
    <g id="页面-1" stroke="none" stroke-width="1" fill="none" fill-rule="evenodd">
        <g id="首页（已添加设备）-选择分类3" transform="translate(-314.000000, -315.000000)">
            <g id="设备1" transform="translate(12.000000, 243.000000)">
                <g id="设备1备份" transform="translate(179.000000, 0.000000)">
                    <g id="编组-3" transform="translate(123.000000, 72.000000)">
                        <g id="公共/开关灭icon">
                            <g id="首页/添加icon备份">
                                <rect id="矩形" fill="#D8D8D8" opacity="0" x="0" y="0" width="46" height="46"></rect>
                                <circle id="椭圆形" fill-opacity="0.1" fill="#999999" cx="23" cy="23" r="16.6111111"></circle>
                                <g id="编组-10" transform="translate(12.777778, 11.500000)" fill="#999999">
                                    <path d="M4.23368714,3.59632672 C1.71754839,5.47516571 0.204444444,8.42659758 0.204444444,11.6277778 C0.204444444,17.1604437 4.68955633,21.6455556 10.2222222,21.6455556 C15.7548881,21.6455556 20.24,17.1604437 20.24,11.6277778 C20.24,8.45004663 18.7490951,5.51772673 16.2638577,3.63625159 C15.7912357,3.27844817 15.118043,3.37152698 14.7602395,3.84414893 C14.4024361,4.31677089 14.4955149,4.98996367 14.9681369,5.3477671 C16.9229566,6.82768394 18.0933333,9.1295873 18.0933333,11.6277778 C18.0933333,15.9748724 14.5693169,19.4988889 10.2222222,19.4988889 C5.87512759,19.4988889 2.35111111,15.9748724 2.35111111,11.6277778 C2.35111111,9.11118128 3.53894947,6.7942063 5.51806826,5.31636827 C5.99304462,4.96169621 6.09057053,4.28913329 5.73589848,3.81415693 C5.38122642,3.33918058 4.7086635,3.24165467 4.23368714,3.59632672 Z" id="路径" fill-rule="nonzero"></path>
                                    <rect id="矩形" x="9.17444444" y="0" width="2.14666667" height="11.6277778" rx="0.84"></rect>
                                </g>
                            </g>
                        </g>
                    </g>
                </g>
            </g>
        </g>
    </g>
</svg>