<?xml version="1.0" encoding="UTF-8"?>
<svg width="46px" height="46px" viewBox="0 0 46 46" version="1.1" xmlns="http://www.w3.org/2000/svg" xmlns:xlink="http://www.w3.org/1999/xlink">
    <!-- Generator: Sketch 58 (84663) - https://sketch.com -->
    <title>公共/开关-开icon</title>
    <desc>Created with Sketch.</desc>
    <g id="页面-1" stroke="none" stroke-width="1" fill="none" fill-rule="evenodd">
        <g id="首页（已添加设备）-选择分类3" transform="translate(-135.000000, -315.000000)">
            <g id="设备1" transform="translate(12.000000, 243.000000)">
                <g id="编组-2">
                    <g transform="translate(123.000000, 72.000000)">
                        <g id="公共/开关亮icon">
                            <g id="首页/添加icon备份">
                                <rect id="矩形" fill="#D8D8D8" opacity="0" x="0" y="0" width="46" height="46"></rect>
                                <circle id="椭圆形" fill="#32BAC0" cx="23" cy="23" r="16.6111111"></circle>
                                <g id="编组-10" transform="translate(14.055556, 11.500000)" fill="#FFFFFF">
                                    <path d="M2.95590937,3.59632672 C0.439770615,5.47516571 -1.07333333,8.42659758 -1.07333333,11.6277778 C-1.07333333,17.1604437 3.41177855,21.6455556 8.94444444,21.6455556 C14.4771103,21.6455556 18.9622222,17.1604437 18.9622222,11.6277778 C18.9622222,8.45004663 17.4713173,5.51772673 14.9860799,3.63625159 C14.513458,3.27844817 13.8402652,3.37152698 13.4824618,3.84414893 C13.1246583,4.31677089 13.2177371,4.98996367 13.6903591,5.3477671 C15.6451788,6.82768394 16.8155556,9.1295873 16.8155556,11.6277778 C16.8155556,15.9748724 13.2915391,19.4988889 8.94444444,19.4988889 C4.59734981,19.4988889 1.07333333,15.9748724 1.07333333,11.6277778 C1.07333333,9.11118128 2.26117169,6.7942063 4.24029049,5.31636827 C4.71526684,4.96169621 4.81279275,4.28913329 4.4581207,3.81415693 C4.10344865,3.33918058 3.43088572,3.24165467 2.95590937,3.59632672 Z" id="路径" fill-rule="nonzero"></path>
                                    <rect id="矩形" x="7.89666667" y="-4.4408921e-15" width="2.14666667" height="11.6277778" rx="0.84"></rect>
                                </g>
                            </g>
                        </g>
                    </g>
                </g>
            </g>
        </g>
    </g>
</svg>