<?xml version="1.0" encoding="UTF-8"?>
<svg width="24px" height="24px" viewBox="0 0 24 24" version="1.1" xmlns="http://www.w3.org/2000/svg" xmlns:xlink="http://www.w3.org/1999/xlink">
    <!-- Generator: Sketch 58 (84663) - https://sketch.com -->
    <title>公共/编辑</title>
    <desc>Created with Sketch.</desc>
    <g id="页面-1" stroke="none" stroke-width="1" fill="none" fill-rule="evenodd">
        <g id="我的-商城-收货地址-有地址状态" transform="translate(-343.000000, -127.000000)">
            <g id="地址1" transform="translate(0.000000, 104.000000)">
                <g id="公共/编辑-2" transform="translate(343.000000, 23.000000)">
                    <g id="公共/编辑">
                        <g id="wulumuqishigongandashujuguanlipingtai-ico-">
                            <rect id="矩形" fill="#D8D8D8" opacity="0" x="0" y="0" width="24" height="24"></rect>
                            <path d="M18.7733333,11.1258011 L18.7733333,17.3333333 C18.7733333,18.1286234 18.1286234,18.7733333 17.3333333,18.7733333 L6.66666667,18.7733333 C5.87137663,18.7733333 5.22666667,18.1286234 5.22666667,17.3333333 L5.22666667,6.66666667 C5.22666667,5.87137663 5.87137663,5.22666667 6.66666667,5.22666667 L12.8176098,5.22666667 C13.1268892,5.22666667 13.3776098,4.97594613 13.3776098,4.66666667 C13.3776098,4.35738721 13.1268892,4.10666667 12.8176098,4.10666667 L6.66666667,4.10666667 C5.25281771,4.10666667 4.10666667,5.25281771 4.10666667,6.66666667 L4.10666667,17.3333333 C4.10666667,18.7471823 5.25281771,19.8933333 6.66666667,19.8933333 L17.3333333,19.8933333 C18.7471823,19.8933333 19.8933333,18.7471823 19.8933333,17.3333333 L19.8933333,11.1258011 C19.8933333,10.8165217 19.6426128,10.5658011 19.3333333,10.5658011 C19.0240539,10.5658011 18.7733333,10.8165217 18.7733333,11.1258011 Z" id="路径" fill="#999999" fill-rule="nonzero"></path>
                            <path d="M18.2805484,4.48894128 L8.51330246,14.4047849 C8.29626607,14.6251233 8.29894284,14.9796856 8.51928119,15.1967219 C8.73961955,15.4137583 9.09418183,15.4110816 9.31121822,15.1907432 L19.0784641,5.27489957 C19.2955005,5.05456121 19.2928237,4.69999893 19.0724854,4.48296254 C18.852147,4.26592615 18.4975848,4.26860293 18.2805484,4.48894128 Z" id="路径-5" fill="#999999" fill-rule="nonzero"></path>
                        </g>
                    </g>
                </g>
            </g>
        </g>
    </g>
</svg>