<?xml version="1.0" encoding="UTF-8"?>
<svg width="46px" height="46px" viewBox="0 0 46 46" version="1.1" xmlns="http://www.w3.org/2000/svg" xmlns:xlink="http://www.w3.org/1999/xlink">
    <!-- Generator: Sketch 58 (84663) - https://sketch.com -->
    <title>儿童房</title>
    <desc>Created with Sketch.</desc>
    <g id="页面-1" stroke="none" stroke-width="1" fill="none" fill-rule="evenodd">
        <g id="添加房间" transform="translate(-210.000000, -285.000000)">
            <g id="组件备份" transform="translate(12.000000, 150.000000)">
                <g id="儿童房" transform="translate(183.000000, 120.000000)">
                    <g id="客厅">
                        <g id="编组" transform="translate(15.000000, 15.000000)">
                            <g id="公共/添加房间/儿童房">
                                <g id="ertongfang">
                                    <g>
                                        <rect id="矩形" fill="#D8D8D8" opacity="0" x="0" y="0" width="46" height="46"></rect>
                                        <path d="M14.0555556,7.87111111 C16.3553303,7.87111111 18.412119,8.91145809 19.7809739,10.5472043 C18.9692643,10.7128358 18.1825439,10.940208 17.4251085,11.2236326 C16.5088959,10.4698219 15.335016,10.0177778 14.0555556,10.0177778 C11.1198553,10.0177778 8.74,12.3976331 8.74,15.3333333 C8.74,16.3094122 9.00308552,17.2240442 9.46221458,18.0101872 C9.06342679,18.7268341 8.72437208,19.4795476 8.45204557,20.2615186 C7.29516499,18.947244 6.59333333,17.2222495 6.59333333,15.3333333 C6.59333333,11.2120618 9.93428402,7.87111111 14.0555556,7.87111111 Z" id="形状结合" fill="#666666" fill-rule="nonzero"></path>
                                        <path d="M31.9444444,7.87111111 C36.065716,7.87111111 39.4066667,11.2120618 39.4066667,15.3333333 C39.4066667,17.2222495 38.704835,18.947244 37.5477138,20.2617749 C37.2757551,19.4799127 36.9368898,18.7275369 36.5378255,18.0105889 C36.9966909,17.2248212 37.26,16.3098269 37.26,15.3333333 C37.26,12.3976331 34.8801447,10.0177778 31.9444444,10.0177778 C30.6647207,10.0177778 29.4906209,10.470008 28.573237,11.2233767 C27.8165448,10.9399261 27.0299265,10.712632 26.2195841,10.5466939 C27.587881,8.91145809 29.6446697,7.87111111 31.9444444,7.87111111 Z" id="形状结合" fill="#666666" fill-rule="nonzero"></path>
                                        <path d="M23,39.6111111 C31.4683662,39.6111111 38.3333333,33.0321842 38.3333333,24.9166667 C38.3333333,16.8011491 31.4683662,10.2222222 23,10.2222222 C14.5316338,10.2222222 7.66666667,16.8011491 7.66666667,24.9166667 C7.66666667,33.0321842 14.5316338,39.6111111 23,39.6111111 Z M23,37.4644444 C15.6972477,37.4644444 9.81333333,31.8256931 9.81333333,24.9166667 C9.81333333,18.0076402 15.6972477,12.3688889 23,12.3688889 C30.3027523,12.3688889 36.1866667,18.0076402 36.1866667,24.9166667 C36.1866667,31.8256931 30.3027523,37.4644444 23,37.4644444 Z" id="椭圆形备份-6" fill="#666666" fill-rule="nonzero"></path>
                                        <path d="M15.3269621,29.2847606 C15.3269621,32.8918503 18.7569517,35.750175 22.9219038,35.750175 C27.0868558,35.750175 30.5168455,32.8918503 30.5168455,29.2847606 C30.5168455,25.6776709 27.0868558,22.8193462 22.9219038,22.8193462 C18.7569517,22.8193462 15.3269621,25.6776709 15.3269621,29.2847606 Z M16.9625176,29.2847606 C16.9625176,26.6536431 19.6010073,24.4549018 22.9219038,24.4549018 C26.2428003,24.4549018 28.8812899,26.6536431 28.8812899,29.2847606 C28.8812899,31.9158781 26.2428003,34.1146194 22.9219038,34.1146194 C19.6010073,34.1146194 16.9625176,31.9158781 16.9625176,29.2847606 Z" id="路径" fill="#666666" fill-rule="nonzero"></path>
                                        <path d="M22.9219038,29.5830264 C21.6333241,29.5830264 20.5887239,28.5384262 20.5887239,27.2498465 C20.5887239,25.9612669 21.6333241,24.9166667 22.9219038,24.9166667 C24.2104834,24.9166667 25.2550836,25.9612669 25.2550836,27.2498465 C25.2550836,28.5384262 24.2104834,29.5830264 22.9219038,29.5830264 Z M22.9219038,28.3052486 C23.5047863,28.3052486 23.9773059,27.832729 23.9773059,27.2498465 C23.9773059,26.6669641 23.5047863,26.1944444 22.9219038,26.1944444 C22.3390213,26.1944444 21.8665017,26.6669641 21.8665017,27.2498465 C21.8665017,27.832729 22.3390213,28.3052486 22.9219038,28.3052486 Z" id="路径" fill="#666666" fill-rule="nonzero"></path>
                                        <path d="M17.8390308,22.5817219 C17.005466,22.5817219 16.2352202,22.1370204 15.8184378,21.415132 C15.4016553,20.6932436 15.4016553,19.8038405 15.8184378,19.0819521 C16.2352202,18.3600637 17.005466,17.9153622 17.8390308,17.9153622 C19.1276105,17.9153622 20.1722107,18.9599624 20.1722107,20.2485421 C20.1722107,21.5371217 19.1276105,22.5817219 17.8390308,22.5817219 Z M17.8390308,21.3039441 C18.4219133,21.3039441 18.8944329,20.8314245 18.8944329,20.2485421 C18.8944329,19.6656596 18.4219133,19.19314 17.8390308,19.19314 C17.461972,19.19314 17.1135552,19.3942985 16.9250258,19.720841 C16.7364964,20.0473835 16.7364964,20.4497006 16.9250258,20.7762431 C17.1135552,21.1027856 17.461972,21.3039441 17.8390308,21.3039441 Z" id="路径" fill="#666666" fill-rule="nonzero"></path>
                                        <path d="M28.0047767,22.5817219 C27.1712118,22.5817219 26.4009661,22.1370204 25.9841836,21.415132 C25.5674012,20.6932436 25.5674012,19.8038405 25.9841836,19.0819521 C26.4009661,18.3600637 27.1712118,17.9153622 28.0047767,17.9153622 C29.2933564,17.9153622 30.3379566,18.9599624 30.3379566,20.2485421 C30.3379566,21.5371217 29.2933564,22.5817219 28.0047767,22.5817219 Z M28.0047767,21.3039441 C28.5876592,21.3039441 29.0601788,20.8314245 29.0601788,20.2485421 C29.0601788,19.6656596 28.5876592,19.19314 28.0047767,19.19314 C27.6277178,19.19314 27.2793011,19.3942985 27.0907716,19.720841 C26.9022422,20.0473835 26.9022422,20.4497006 27.0907716,20.7762431 C27.2793011,21.1027856 27.6277178,21.3039441 28.0047767,21.3039441 Z" id="路径" fill="#666666" fill-rule="nonzero"></path>
                                    </g>
                                </g>
                            </g>
                        </g>
                    </g>
                </g>
            </g>
        </g>
    </g>
</svg>