<?xml version="1.0" encoding="UTF-8"?>
<svg width="22px" height="22px" viewBox="0 0 22 22" version="1.1" xmlns="http://www.w3.org/2000/svg" xmlns:xlink="http://www.w3.org/1999/xlink">
    <!-- Generator: Sketch 58 (84663) - https://sketch.com -->
    <title>公共/更多</title>
    <desc>Created with Sketch.</desc>
    <g id="页面-1" stroke="none" stroke-width="1" fill="none" fill-rule="evenodd">
        <g id="净水器-设备界面" transform="translate(-344.000000, -56.000000)">
            <g id="顶部栏" transform="translate(0.000000, 44.000000)">
                <g id="编组" transform="translate(6.000000, 10.000000)">
                    <g id="公共/白色更多icon" transform="translate(349.000000, 13.000000) rotate(-180.000000) translate(-349.000000, -13.000000) translate(338.000000, 2.000000)">
                        <g id="编组-12">
                            <rect id="矩形" fill="#D8D8D8" opacity="0" x="0" y="0" width="22" height="22"></rect>
                            <g id="gengduo-2" transform="translate(3.055556, 9.166667)" fill="#FFFFFF" fill-rule="nonzero">
                                <path d="M1.78674218,0.0101357305 C0.80736204,0.0101357305 0.0134332264,0.804006322 0.0134332264,1.78346411 C0.0134332264,2.76286365 0.807362058,3.55640421 1.78674218,3.55640421 C2.76577287,3.55640421 3.55968228,2.76286365 3.55968228,1.78346411 C3.55968228,0.804006303 2.76577287,0.0101357305 1.78674218,0.0101357305 Z M7.89095225,0.0101357305 C6.91116445,0.0101357305 6.11762387,0.804006322 6.11762387,1.78346411 C6.11762387,2.76286365 6.91116443,3.55640421 7.89095225,3.55640421 C8.86998294,3.55640421 9.66428062,2.76286365 9.66428062,1.78346411 C9.66428062,0.804006303 8.86996354,0.0101357305 7.89095225,0.0101357305 Z M13.9955506,0.0101357305 C13.0157628,0.0101357305 12.2222222,0.804006322 12.2222222,1.78346411 C12.2222222,2.76286365 13.0157628,3.55640421 13.9955506,3.55640421 C14.9749695,3.55640421 15.768879,2.76286365 15.768879,1.78346411 C15.768879,0.804006303 14.9749696,0.0101357305 13.9955506,0.0101357305 Z" id="形状"></path>
                            </g>
                        </g>
                    </g>
                </g>
            </g>
        </g>
    </g>
</svg>