<?xml version="1.0" encoding="UTF-8"?>
<svg width="100px" height="100px" viewBox="0 0 100 100" version="1.1" xmlns="http://www.w3.org/2000/svg" xmlns:xlink="http://www.w3.org/1999/xlink">
    <!-- Generator: Sketch 58 (84663) - https://sketch.com -->
    <title>公共/灰色加载icon</title>
    <desc>Created with Sketch.</desc>
    <g id="页面-1" stroke="none" stroke-width="1" fill="none" fill-rule="evenodd">
        <g id="净水器-设备界面-固件升级-安装中" transform="translate(-137.000000, -186.000000)">
            <g id="公共/灰色加载icon-" transform="translate(137.000000, 186.000000)">
                <g id="固件升级/安装中">
                    <g>
                        <rect id="矩形" fill="#D8D8D8" opacity="0" x="0" y="0" width="100" height="100"></rect>
                        <path d="M50,85.6666667 C69.6981561,85.6666667 85.6666667,69.6981561 85.6666667,50 C85.6666667,30.3018439 69.6981561,14.3333333 50,14.3333333 C30.3018439,14.3333333 14.3333333,30.3018439 14.3333333,50 C14.3333333,69.6981561 30.3018439,85.6666667 50,85.6666667 Z M50,81 C32.8791728,81 19,67.1208272 19,50 C19,32.8791728 32.8791728,19 50,19 C67.1208272,19 81,32.8791728 81,50 C81,67.1208272 67.1208272,81 50,81 Z" id="椭圆形" fill-opacity="0.2" fill="#32BAC0" fill-rule="nonzero"></path>
                        <path d="M83.7784915,61.4791732 C85.0239289,57.8133043 85.6666667,53.9487971 85.6666667,50 C85.6666667,30.3018439 69.6981561,14.3333333 50,14.3333333 C30.3018439,14.3333333 14.3333333,30.3018439 14.3333333,50 C14.3333333,69.6981561 30.3018439,85.6666667 50,85.6666667 C59.4715421,85.6666667 68.3630363,81.9550642 74.9870885,75.4510736 C75.9066069,74.5482215 75.9201177,73.0708984 75.0172656,72.1513799 C74.1144135,71.2318615 72.6370904,71.2183508 71.717572,72.1212028 C65.9575196,77.7768537 58.2361682,81 50,81 C32.8791728,81 19,67.1208272 19,50 C19,32.8791728 32.8791728,19 50,19 C67.1208272,19 81,32.8791728 81,50 C81,53.4365269 80.4415892,56.7940119 79.3598669,59.9779957 C78.9453281,61.1981652 79.5984209,62.523358 80.8185904,62.9378968 C82.0387599,63.3524355 83.3639528,62.6993427 83.7784915,61.4791732 Z" id="路径" fill="" fill-rule="nonzero"></path>
                    </g>
                </g>
            </g>
        </g>
    </g>
</svg>