<?xml version="1.0" encoding="UTF-8"?>
<svg width="18px" height="18px" viewBox="0 0 18 18" version="1.1" xmlns="http://www.w3.org/2000/svg" xmlns:xlink="http://www.w3.org/1999/xlink">
    <!-- Generator: Sketch 58 (84663) - https://sketch.com -->
    <title>公共/灰色进入</title>
    <desc>Created with Sketch.</desc>
    <g id="页面-1" stroke="none" stroke-width="1" fill="none" fill-rule="evenodd">
        <g id="添加房间-客厅（无设备状态）" transform="translate(-350.000000, -120.000000)">
            <g id="状态" transform="translate(0.000000, 104.000000)">
                <g id="房间名称">
                    <g id="编组-2" transform="translate(12.000000, 14.000000)">
                        <g id="编组-4" transform="translate(338.000000, 2.000000)">
                            <g id="公共/灰色进入箭头备份">
                                <g id="公共/进入箭头">
                                    <rect id="矩形" stroke="#979797" fill="#D8D8D8" opacity="0" x="0" y="0" width="18" height="18"></rect>
                                    <g id="jiantou" transform="translate(5.000000, 2.500000)" fill="#999999" fill-rule="nonzero">
                                        <path d="M1.09524745,12.589096 C0.843472456,12.8163929 0.43639701,12.8146935 0.18650446,12.5852723 C-0.0633510933,12.3551287 -0.0616727073,11.9863639 0.190269313,11.7580817 L6.17121943,6.36116195 L0.19168114,1.00162937 C-0.0613036795,0.774143736 -0.0642424044,0.405185158 0.185092634,0.174438732 C0.304194007,0.0640223347 0.467279054,0.00121459456 0.637990733,-1.69315854e-05 C0.808702411,-0.00117973279 0.972848579,0.0593332064 1.09383563,0.168065916 L7.17201484,5.61604966 C7.58327689,5.98467139 7.61784369,6.6168921 7.24922196,7.02815414 C7.22566114,7.05444037 7.20072498,7.07946062 7.17451823,7.10310981 L1.09524745,12.589096 L1.09524745,12.589096 Z" id="路径"></path>
                                    </g>
                                </g>
                            </g>
                        </g>
                    </g>
                </g>
            </g>
        </g>
    </g>
</svg>