<?xml version="1.0" encoding="UTF-8"?>
<svg width="72px" height="72px" viewBox="0 0 72 72" version="1.1" xmlns="http://www.w3.org/2000/svg" xmlns:xlink="http://www.w3.org/1999/xlink">
    <!-- Generator: Sketch 58 (84663) - https://sketch.com -->
    <title>公共/灰色加载icon</title>
    <desc>Created with Sketch.</desc>
    <g id="页面-1" stroke="none" stroke-width="1" fill="none" fill-rule="evenodd">
        <g id="净水器-设备界面-固件升级" transform="translate(-151.000000, -200.000000)">
            <g id="编组-2" transform="translate(137.000000, 186.000000)">
                <g id="固件升级/加载">
                    <g id="编组-10">
                        <rect id="矩形" fill="#D8D8D8" opacity="0" x="0" y="0" width="100" height="100"></rect>
                        <g id="编组-13" transform="translate(13.888889, 13.888889)" fill-rule="nonzero">
                            <path d="M36.1111111,71.7777778 C55.8092672,71.7777778 71.7777778,55.8092672 71.7777778,36.1111111 C71.7777778,16.412955 55.8092672,0.444444444 36.1111111,0.444444444 C16.412955,0.444444444 0.444444444,16.412955 0.444444444,36.1111111 C0.444444444,55.8092672 16.412955,71.7777778 36.1111111,71.7777778 Z M36.1111111,67.1111111 C18.9902839,67.1111111 5.11111111,53.2319384 5.11111111,36.1111111 C5.11111111,18.9902839 18.9902839,5.11111111 36.1111111,5.11111111 C53.2319384,5.11111111 67.1111111,18.9902839 67.1111111,36.1111111 C67.1111111,53.2319384 53.2319384,67.1111111 36.1111111,67.1111111 Z" id="椭圆形" fill-opacity="0.3" fill="#999999"></path>
                            <path d="M36.1111111,55.1111111 C46.6045214,55.1111111 55.1111111,46.6045214 55.1111111,36.1111111 C55.1111111,25.6177009 46.6045214,17.1111111 36.1111111,17.1111111 C25.6177009,17.1111111 17.1111111,25.6177009 17.1111111,36.1111111 C17.1111111,46.6045214 25.6177009,55.1111111 36.1111111,55.1111111 Z M36.1111111,50.4444444 C28.1950297,50.4444444 21.7777778,44.0271925 21.7777778,36.1111111 C21.7777778,28.1950297 28.1950297,21.7777778 36.1111111,21.7777778 C44.0271925,21.7777778 50.4444444,28.1950297 50.4444444,36.1111111 C50.4444444,44.0271925 44.0271925,50.4444444 36.1111111,50.4444444 Z" id="椭圆形备份" fill-opacity="0.05" fill="#999999"></path>
                            <path d="M28.0884116,53.3386338 C30.5800579,54.5007064 33.3046539,55.1111111 36.1111111,55.1111111 C46.6045214,55.1111111 55.1111111,46.6045214 55.1111111,36.1111111 C55.1111111,25.6177009 46.6045214,17.1111111 36.1111111,17.1111111 C25.6177009,17.1111111 17.1111111,25.6177009 17.1111111,36.1111111 C17.1111111,40.0472231 18.313197,43.8093083 20.5187566,46.9708515 C21.2560688,48.0277463 22.710561,48.2868192 23.7674559,47.549507 C24.8243507,46.8121948 25.0834235,45.3577026 24.3461113,44.3008077 C22.682592,41.9162481 21.7777778,39.0845137 21.7777778,36.1111111 C21.7777778,28.1950297 28.1950297,21.7777778 36.1111111,21.7777778 C44.0271925,21.7777778 50.4444444,28.1950297 50.4444444,36.1111111 C50.4444444,44.0271925 44.0271925,50.4444444 36.1111111,50.4444444 C33.9897348,50.4444444 31.9380204,49.9847887 30.0609073,49.1093267 C28.8930165,48.5646371 27.5046956,49.0698415 26.9600059,50.2377324 C26.4153163,51.4056233 26.9205207,52.7939441 28.0884116,53.3386338 Z" id="路径" fill=""></path>
                        </g>
                    </g>
                </g>
            </g>
        </g>
    </g>
</svg>