<?xml version="1.0" encoding="UTF-8"?>
<svg width="88px" height="88px" viewBox="0 0 88 88" version="1.1" xmlns="http://www.w3.org/2000/svg" xmlns:xlink="http://www.w3.org/1999/xlink">
    <!-- Generator: Sketch 58 (84663) - https://sketch.com -->
    <title>公共/加载中</title>
    <desc>Created with Sketch.</desc>
    <g id="页面-1" stroke="none" stroke-width="1" fill="none" fill-rule="evenodd">
        <g id="家庭管理-家庭位置-定为中" transform="translate(-144.000000, -349.000000)">
            <g id="弹窗">
                <g id="编组-5" transform="translate(116.000000, 345.000000)">
                    <g id="编组-3" transform="translate(28.000000, 4.000000)">
                        <g id="公共/加载icon">
                            <g id="jiazai">
                                <rect id="矩形" fill="#D8D8D8" opacity="0" x="0" y="0" width="88" height="88"></rect>
                                <path d="M59.2383852,27.8960606 C59.2383852,29.6874584 60.6906,31.1396732 62.4819977,31.1396732 C64.2733955,31.1396732 65.7256103,29.6874584 65.7256103,27.8960606 C65.7256103,26.1046629 64.2733955,24.6524481 62.4819977,24.6524481 C60.6906,24.6524481 59.2383852,26.1046629 59.2383852,27.8960606 L59.2383852,27.8960606 Z" id="路径" fill="#FFFFFF" fill-rule="nonzero" opacity="0.3"></path>
                                <path d="M65.2634647,45.425127 C65.2632901,46.855617 66.0263471,48.177519 67.2651586,48.8928144 C68.5039702,49.6081098 70.0302994,49.6081098 71.2691109,48.8928144 C72.5079225,48.177519 73.2709795,46.855617 73.2708049,45.425127 C73.2709795,43.9946371 72.5079225,42.6727351 71.2691109,41.9574397 C70.0302994,41.2421443 68.5039702,41.2421443 67.2651586,41.9574397 C66.0263471,42.6727351 65.2632901,43.9946371 65.2634647,45.425127 L65.2634647,45.425127 Z" id="路径" fill="#FFFFFF" fill-rule="nonzero" opacity="0.4"></path>
                                <path d="M57.9206975,63.0420392 C57.9206975,65.645024 60.0308335,67.75516 62.6338183,67.75516 C65.236803,67.75516 67.3469391,65.645024 67.3469391,63.0420392 C67.3469391,61.3582033 66.4486234,59.8022747 64.9903787,58.9603567 C63.5321341,58.1184388 61.7355025,58.1184388 60.2772578,58.9603567 C58.8190131,59.8022747 57.9206975,61.3582033 57.9206975,63.0420392 L57.9206975,63.0420392 Z" id="路径" fill="#FFFFFF" fill-rule="nonzero" opacity="0.5"></path>
                                <path d="M39.5733279,70.0868945 C39.573124,72.0376329 40.6137134,73.8402767 42.3030684,74.8157048 C43.9924234,75.7911329 46.0738535,75.7911329 47.7632085,74.8157048 C49.4525635,73.8402767 50.4931529,72.0376329 50.492949,70.0868945 C50.4931529,68.1361561 49.4525635,66.3335122 47.7632085,65.3580842 C46.0738535,64.3826561 43.9924234,64.3826561 42.3030684,65.3580842 C40.6137134,66.3335122 39.573124,68.1361561 39.5733279,70.0868945 L39.5733279,70.0868945 Z" id="路径" fill="#FFFFFF" fill-rule="nonzero" opacity="0.6"></path>
                                <path d="M21.582116,62.7651339 C21.582116,64.9378144 22.7412271,66.9454539 24.6228236,68.0317942 C26.5044201,69.1181344 28.8226426,69.1181344 30.7042391,68.0317942 C32.5858356,66.9454539 33.7449468,64.9378144 33.7449468,62.7651339 C33.7449468,59.4064609 31.0222044,56.6837185 27.6635314,56.6837185 C24.3048584,56.6837185 21.582116,59.4064609 21.582116,62.7651339 Z" id="路径" fill="#FFFFFF" fill-rule="nonzero" opacity="0.7"></path>
                                <path d="M38.703463,21.1042397 C38.703463,24.6590858 41.5852351,27.5408579 45.1400812,27.5408579 C48.6949273,27.5408579 51.5766994,24.6590858 51.5766994,21.1042397 C51.5766994,18.8046575 50.3498869,16.6797559 48.3583903,15.5299647 C46.3668937,14.3801736 43.9132687,14.3801736 41.9217721,15.5299647 C39.9302754,16.6797559 38.703463,18.8046575 38.703463,21.1042397 Z" id="路径" fill="#FFFFFF" fill-rule="nonzero"></path>
                                <path d="M21.2269132,28.0478812 C21.2269132,30.3474634 22.4537256,32.4723651 24.4452222,33.6221562 C26.4367189,34.7719473 28.8903439,34.7719473 30.8818405,33.6221562 C32.8733371,32.4723651 34.1001496,30.3474634 34.1001496,28.0478812 C34.1001496,24.4930352 31.2183774,21.611263 27.6635314,21.611263 C24.1086853,21.611263 21.2269132,24.4930352 21.2269132,28.0478812 L21.2269132,28.0478812 Z" id="路径" fill="#FFFFFF" fill-rule="nonzero" opacity="0.9"></path>
                                <path d="M14.7062685,45.2226997 C14.7062685,47.4138014 15.8752073,49.4384628 17.772757,50.5340137 C19.6703068,51.6295646 22.0081845,51.6295646 23.9057342,50.5340137 C25.8032839,49.4384628 26.9722227,47.4138014 26.9722227,45.2226997 C26.9722227,41.8355499 24.2263953,39.0897226 20.8392456,39.0897226 C17.4520959,39.0897226 14.7062685,41.8355499 14.7062685,45.2226997 L14.7062685,45.2226997 Z" id="路径" fill="#FFFFFF" fill-rule="nonzero" opacity="0.8"></path>
                            </g>
                        </g>
                    </g>
                </g>
            </g>
        </g>
    </g>
</svg>