<?xml version="1.0" encoding="UTF-8"?>
<svg width="88px" height="88px" viewBox="0 0 88 88" version="1.1" xmlns="http://www.w3.org/2000/svg" xmlns:xlink="http://www.w3.org/1999/xlink">
    <!-- Generator: Sketch 58 (84663) - https://sketch.com -->
    <title>公共/加载完成</title>
    <desc>Created with Sketch.</desc>
    <g id="页面-1" stroke="none" stroke-width="1" fill="none" fill-rule="evenodd">
        <g id="家庭管理-定为成功" transform="translate(-144.000000, -349.000000)">
            <g id="弹窗">
                <g id="编组-5" transform="translate(116.000000, 345.000000)">
                    <g id="编组-3" transform="translate(28.000000, 4.000000)">
                        <g id="公共/提示icon">
                            <g id="编组-9">
                                <g>
                                    <rect id="矩形" fill="#D8D8D8" opacity="0" x="0" y="0" width="88" height="88"></rect>
                                    <path d="M44,75.7777778 C61.550382,75.7777778 75.7777778,61.550382 75.7777778,44 C75.7777778,26.449618 61.550382,12.2222222 44,12.2222222 C26.449618,12.2222222 12.2222222,26.449618 12.2222222,44 C12.2222222,61.550382 26.449618,75.7777778 44,75.7777778 Z M44,71.6711111 C28.7176673,71.6711111 16.3288889,59.2823327 16.3288889,44 C16.3288889,28.7176673 28.7176673,16.3288889 44,16.3288889 C59.2823327,16.3288889 71.6711111,28.7176673 71.6711111,44 C71.6711111,59.2823327 59.2823327,71.6711111 44,71.6711111 Z" id="路径" fill="#FFFFFF" fill-rule="nonzero"></path>
                                    <path d="M29.1013171,40.1160452 C28.3437604,39.2721733 27.045546,39.202201 26.2016741,39.9597577 C25.3578021,40.7173144 25.2878299,42.0155288 26.0453866,42.8594008 L38.583117,56.8256666 C39.3898749,57.7243456 40.7942179,57.73609 41.615893,56.8510294 L61.6901951,35.2281605 C62.4617593,34.3970765 62.4135089,33.0978734 61.5824249,32.3263092 C60.7513409,31.554745 59.4521378,31.6029953 58.6805736,32.4340794 L40.1365504,52.408621 L29.1013171,40.1160452 Z" id="路径-3" fill="#FFFFFF" fill-rule="nonzero"></path>
                                </g>
                            </g>
                        </g>
                    </g>
                </g>
            </g>
        </g>
    </g>
</svg>