<?xml version="1.0" encoding="UTF-8"?>
<svg width="46px" height="46px" viewBox="0 0 46 46" version="1.1" xmlns="http://www.w3.org/2000/svg" xmlns:xlink="http://www.w3.org/1999/xlink">
    <!-- Generator: Sketch 58 (84663) - https://sketch.com -->
    <title>客厅</title>
    <desc>Created with Sketch.</desc>
    <g id="页面-1" stroke="none" stroke-width="1" fill="none" fill-rule="evenodd">
        <g id="添加房间" transform="translate(-27.000000, -165.000000)">
            <g id="组件备份" transform="translate(12.000000, 150.000000)">
                <g id="客厅">
                    <g id="编组">
                        <g transform="translate(15.000000, 15.000000)">
                            <g id="公共/添加房间/客厅">
                                <g>
                                    <rect id="矩形" fill="#D8D8D8" opacity="0" x="0" y="0" width="46" height="46"></rect>
                                    <path d="M12.5733333,23 L12.5733333,11.5 C12.5733333,10.6813913 13.2369468,10.0177778 14.0555556,10.0177778 L31.9444444,10.0177778 C32.7630532,10.0177778 33.4266667,10.6813913 33.4266667,11.5 L33.4266667,23 L35.5733333,23 L35.5733333,11.5 C35.5733333,9.49582001 33.9486244,7.87111111 31.9444444,7.87111111 L14.0555556,7.87111111 C12.0513756,7.87111111 10.4266667,9.49582001 10.4266667,11.5 L10.4266667,23 L12.5733333,23 Z" id="路径" fill="#616666" fill-rule="nonzero"></path>
                                    <path d="M30.8711111,30.8698333 L30.8711111,25.5555556 C30.8711111,23.5513756 32.49582,21.9266667 34.5,21.9266667 C36.50418,21.9266667 38.1288889,23.5513756 38.1288889,25.5555556 L38.1288889,36.2888889 C38.1288889,37.3050928 37.3050928,38.1288889 36.2888889,38.1288889 L9.71111111,38.1288889 C8.69490717,38.1288889 7.87111111,37.3050928 7.87111111,36.2888889 L7.87111111,25.5555556 C7.87111111,23.5513756 9.49582001,21.9266667 11.5,21.9266667 C13.50418,21.9266667 15.1288889,23.5513756 15.1288889,25.5555556 L15.1288889,30.8698333 L30.8711111,30.8698333 Z M35.9822222,25.5555556 C35.9822222,24.7369468 35.3186087,24.0733333 34.5,24.0733333 C33.6813913,24.0733333 33.0177778,24.7369468 33.0177778,25.5555556 L33.0177778,31.1765 C33.0177778,32.1927039 32.1939817,33.0165 31.1777778,33.0165 L14.8222222,33.0165 C13.8060183,33.0165 12.9822222,32.1927039 12.9822222,31.1765 L12.9822222,25.5555556 C12.9822222,24.7369468 12.3186087,24.0733333 11.5,24.0733333 C10.6813913,24.0733333 10.0177778,24.7369468 10.0177778,25.5555556 L10.0177778,35.9822222 L35.9822222,35.9822222 L35.9822222,25.5555556 Z" id="路径" fill="#616666" fill-rule="nonzero"></path>
                                    <rect id="矩形" fill="#616666" x="14.0555556" y="26.8333333" width="17.8888889" height="2.14666667"></rect>
                                    <rect id="矩形" fill="#616666" x="12.7777778" y="37.0555556" width="2.14666667" height="2.55555556" rx="0.84"></rect>
                                    <rect id="矩形备份-10" fill="#616666" x="30.6666667" y="37.0555556" width="2.14666667" height="2.55555556" rx="0.84"></rect>
                                </g>
                            </g>
                        </g>
                    </g>
                </g>
            </g>
        </g>
    </g>
</svg>