<?xml version="1.0" encoding="UTF-8"?>
<svg width="46px" height="46px" viewBox="0 0 46 46" version="1.1" xmlns="http://www.w3.org/2000/svg" xmlns:xlink="http://www.w3.org/1999/xlink">
    <!-- Generator: Sketch 58 (84663) - https://sketch.com -->
    <title>媒体房</title>
    <desc>Created with Sketch.</desc>
    <g id="页面-1" stroke="none" stroke-width="1" fill="none" fill-rule="evenodd">
        <g id="添加房间" transform="translate(-119.000000, -405.000000)">
            <g id="组件备份" transform="translate(12.000000, 150.000000)">
                <g id="媒体房" transform="translate(92.000000, 240.000000)">
                    <g id="客厅">
                        <g id="编组" transform="translate(15.000000, 15.000000)">
                            <g id="公共/添加房间/媒体房">
                                <g id="编组-9">
                                    <rect id="矩形" fill="#D8D8D8" opacity="0" x="0" y="0" width="46" height="46"></rect>
                                    <rect id="矩形" fill="#666666" x="10.1857143" y="13.8730159" width="1.76333333" height="3.65079365" rx="0.69"></rect>
                                    <rect id="矩形备份-9" fill="#666666" x="34.0527778" y="13.8730159" width="1.76333333" height="3.65079365" rx="0.69"></rect>
                                    <rect id="矩形备份-7" fill="#666666" x="10.1857143" y="21.1746032" width="1.76333333" height="3.65079365" rx="0.69"></rect>
                                    <rect id="矩形备份-10" fill="#666666" x="34.0527778" y="21.1746032" width="1.76333333" height="3.65079365" rx="0.69"></rect>
                                    <rect id="矩形备份-8" fill="#666666" x="10.1857143" y="28.4761905" width="1.76333333" height="3.65079365" rx="0.69"></rect>
                                    <rect id="矩形备份-11" fill="#666666" x="34.0527778" y="28.4761905" width="1.76333333" height="3.65079365" rx="0.69"></rect>
                                    <path d="M8.94444444,10.2222222 L37.0555556,10.2222222 C38.4669499,10.2222222 39.6111111,11.3663834 39.6111111,12.7777778 L39.6111111,33.2222222 C39.6111111,34.6336166 38.4669499,35.7777778 37.0555556,35.7777778 L8.94444444,35.7777778 C7.53305008,35.7777778 6.38888889,34.6336166 6.38888889,33.2222222 L6.38888889,12.7777778 C6.38888889,11.3663834 7.53305008,10.2222222 8.94444444,10.2222222 Z M8.94444444,12.3688889 L8.85068997,12.3796879 C8.67005287,12.422066 8.53555556,12.5842151 8.53555556,12.7777778 L8.53555556,33.2222222 C8.53555556,33.4480453 8.71862135,33.6311111 8.94444444,33.6311111 L37.0555556,33.6311111 C37.2813787,33.6311111 37.4644444,33.4480453 37.4644444,33.2222222 L37.4644444,12.7777778 C37.4644444,12.5519547 37.2813787,12.3688889 37.0555556,12.3688889 L8.94444444,12.3688889 Z" id="矩形" fill="#666666" fill-rule="nonzero"></path>
                                    <path d="M19.4094444,18.0279069 L19.4094444,28.1788791 C19.4094444,28.8699748 20.1684142,29.2923847 20.7557514,28.9281758 L28.9406738,23.8526897 C29.496709,23.5078912 29.496709,22.6988948 28.9406738,22.3540963 L20.7557514,17.2786102 C20.1684142,16.9144012 19.4094444,17.3368112 19.4094444,18.0279069 Z M21.1727778,19.6120511 L26.8030488,23.103393 L21.1727778,26.5947349 L21.1727778,19.6120511 Z" id="路径-3" fill="#666666" fill-rule="nonzero"></path>
                                </g>
                            </g>
                        </g>
                    </g>
                </g>
            </g>
        </g>
    </g>
</svg>