<?xml version="1.0" encoding="UTF-8"?>
<svg width="50px" height="51px" viewBox="0 0 50 51" version="1.1" xmlns="http://www.w3.org/2000/svg" xmlns:xlink="http://www.w3.org/1999/xlink">
    <!-- Generator: Sketch 58 (84663) - https://sketch.com -->
    <title>切换家庭/开关-关</title>
    <desc>Created with Sketch.</desc>
    <g id="页面-1" stroke="none" stroke-width="1" fill="none" fill-rule="evenodd">
        <g id="切换家庭-家庭管理" transform="translate(-317.000000, -382.000000)">
            <g id="编组-4" transform="translate(317.000000, 382.500000)">
                <g id="公共/开关-关icon">
                    <g id="kaiguan">
                        <rect id="矩形" fill="#D8D8D8" opacity="0" x="0" y="0" width="50" height="50"></rect>
                        <g id="编组" transform="translate(25.021587, 25.030839) scale(-1, 1) translate(-25.021587, -25.030839) translate(4.188254, 12.530839)">
                            <path d="M29.1666667,24.6929825 L12.3245614,24.6929825 C5.52631579,24.6929825 5.32907052e-15,19.1666667 5.32907052e-15,12.3684211 C5.32907052e-15,5.52631579 5.52631579,-2.09610107e-13 12.3245614,-2.09610107e-13 L29.2105263,-2.09610107e-13 C36.0087719,-2.09610107e-13 41.5350877,5.52631579 41.5350877,12.3245614 C41.4912281,19.122807 35.9649123,24.6929825 29.1666667,24.6929825 L29.1666667,24.6929825 Z" id="路径" fill="#999999" opacity="0.2"></path>
                            <path d="M29.1666667,20.7894737 C24.5175439,20.7894737 20.745614,17.0175439 20.745614,12.3684211 C20.745614,7.71929825 24.5175439,3.90350877 29.1666667,3.90350877 C33.8157895,3.90350877 37.5877193,7.6754386 37.5877193,12.3245614 C37.5877193,16.9736842 33.8157895,20.7894737 29.1666667,20.7894737 L29.1666667,20.7894737 Z" id="路径" fill="#FFFFFF" fill-rule="nonzero"></path>
                        </g>
                    </g>
                </g>
            </g>
        </g>
    </g>
</svg>