<?xml version="1.0" encoding="UTF-8"?>
<svg width="50px" height="51px" viewBox="0 0 50 51" version="1.1" xmlns="http://www.w3.org/2000/svg" xmlns:xlink="http://www.w3.org/1999/xlink">
    <!-- Generator: Sketch 58 (84663) - https://sketch.com -->
    <title>切换家庭/开关-开</title>
    <desc>Created with Sketch.</desc>
    <g id="页面-1" stroke="none" stroke-width="1" fill="none" fill-rule="evenodd">
        <g id="切换家庭-家庭管理" transform="translate(-317.000000, -282.000000)">
            <g id="自动切换家庭" transform="translate(0.000000, 282.500000)">
                <g id="编组-2" transform="translate(12.000000, 0.000000)">
                    <g id="公共/开关-开icon" transform="translate(305.000000, 0.000000)">
                        <g id="kaiguan">
                            <rect id="矩形" fill="#D8D8D8" opacity="0" x="0" y="0" width="50" height="50"></rect>
                            <path d="M33.3549205,37.2238213 L16.5128152,37.2238213 C9.71456963,37.2238213 4.18825384,31.6975055 4.18825384,24.8992599 C4.18825384,18.0571546 9.71456963,12.5308388 16.5128152,12.5308388 L33.3987802,12.5308388 C40.1970258,12.5308388 45.7233416,18.0571546 45.7233416,24.8554002 C45.6794819,31.6536458 40.1531661,37.2238213 33.3549205,37.2238213 L33.3549205,37.2238213 Z" id="路径" fill="#32BAC0"></path>
                            <path d="M33.3549205,33.3203125 C28.7057977,33.3203125 24.9338679,29.5483827 24.9338679,24.8992599 C24.9338679,20.2501371 28.7057977,16.4343476 33.3549205,16.4343476 C38.0040433,16.4343476 41.7759731,20.2062774 41.7759731,24.8554002 C41.7759731,29.504523 38.0040433,33.3203125 33.3549205,33.3203125 L33.3549205,33.3203125 Z" id="路径" fill="#FFFFFF" fill-rule="nonzero"></path>
                        </g>
                    </g>
                </g>
            </g>
        </g>
    </g>
</svg>