<?xml version="1.0" encoding="UTF-8"?>
<svg width="26px" height="26px" viewBox="0 0 26 26" version="1.1" xmlns="http://www.w3.org/2000/svg" xmlns:xlink="http://www.w3.org/1999/xlink">
    <!-- Generator: Sketch 58 (84663) - https://sketch.com -->
    <title>地区位置/取消</title>
    <desc>Created with Sketch.</desc>
    <g id="页面-1" stroke="none" stroke-width="1" fill="none" fill-rule="evenodd">
        <g id="家庭管理-家庭位置-2" transform="translate(-7.000000, -442.000000)">
            <g id="弹窗">
                <g id="选择城市" transform="translate(0.000000, 430.000000)">
                    <g id="编组-3" transform="translate(7.000000, 12.000000)">
                        <g id="地区位置/取消icon">
                            <g id="编组-13">
                                <rect id="矩形" stroke="#979797" fill="#D8D8D8" opacity="0" x="0" y="0" width="26" height="26"></rect>
                                <g id="编组" transform="translate(5.055556, 4.472280)" fill="#666666">
                                    <path d="M8.17754159,-1.75720165 C8.63536812,-1.75583529 9.00627162,-1.38522421 9.00799907,-0.92739889 L9.08041744,18.2656705 C9.08212987,18.7195169 8.71560284,19.0888204 8.26175641,19.0905328 C8.25990537,19.0905398 8.25805431,19.0905405 8.25620327,19.090535 C7.79837673,19.0891686 7.42747323,18.7185575 7.42574579,18.2607322 L7.35332742,-0.932337162 C7.35161499,-1.3861836 7.71814201,-1.75548702 8.17198845,-1.75719946 C8.17383949,-1.75720644 8.17569054,-1.75720717 8.17754159,-1.75720165 Z" id="矩形" transform="translate(8.216872, 8.666667) rotate(-45.000000) translate(-8.216872, -8.666667) "></path>
                                    <path d="M8.25620327,-1.75720165 C8.71005091,-1.75855613 9.07906515,-1.39173794 9.08041963,-0.9378903 C9.08042515,-0.936039257 9.08042442,-0.9341882 9.08041744,-0.932337162 L9.00799907,18.2607322 C9.00627162,18.7185575 8.63536812,19.0891686 8.17754159,19.090535 C7.72369394,19.0918895 7.35467971,18.7250713 7.35332523,18.2712236 C7.3533197,18.2693726 7.35332043,18.2675215 7.35332742,18.2656705 L7.42574579,-0.92739889 C7.42747323,-1.38522421 7.79837673,-1.75583529 8.25620327,-1.75720165 Z" id="矩形备份-7" transform="translate(8.216872, 8.666667) rotate(-315.000000) translate(-8.216872, -8.666667) "></path>
                                </g>
                            </g>
                        </g>
                    </g>
                </g>
            </g>
        </g>
    </g>
</svg>