<?xml version="1.0" encoding="UTF-8"?>
<svg width="22px" height="22px" viewBox="0 0 22 22" version="1.1" xmlns="http://www.w3.org/2000/svg" xmlns:xlink="http://www.w3.org/1999/xlink">
    <!-- Generator: Sketch 58 (84663) - https://sketch.com -->
    <title>公共/扫码添加</title>
    <desc>Created with Sketch.</desc>
    <g id="页面-1" stroke="none" stroke-width="1" fill="none" fill-rule="evenodd">
        <g id="添加设备" transform="translate(-344.000000, -56.000000)">
            <g id="顶部栏" transform="translate(0.000000, 44.000000)">
                <g id="编组" transform="translate(6.000000, 10.000000)">
                    <g id="首页/扫码添加icon备份" transform="translate(349.000000, 13.000000) rotate(-180.000000) translate(-349.000000, -13.000000) translate(338.000000, 2.000000)">
                        <g id="首页/扫码添加icon">
                            <rect id="矩形" fill="#D8D8D8" opacity="0" x="0" y="0" width="22" height="22"></rect>
                            <g id="编组" transform="translate(3.568889, 3.568889)" fill="#374142">
                                <path d="M14.7644444,9.43777778 C15.1046519,9.43777778 15.3847388,9.6951842 15.4205717,10.0258635 L15.4244444,10.0977778 L15.4244444,13.4303821 C15.4244444,14.4818454 14.65147,15.3618087 13.6503349,15.4212455 L13.5422222,15.4244444 L1.32,15.4244444 C0.303262619,15.4244444 -0.504771689,14.5807386 -0.55928923,13.542353 L-0.562222222,13.4303821 L-0.562222222,10.0977778 C-0.562222222,9.73326984 -0.266730157,9.43777778 0.0977777778,9.43777778 C0.437985184,9.43777778 0.718072099,9.6951842 0.753904988,10.0258635 L0.757777778,10.0977778 L0.757777778,13.4303821 C0.757777778,13.7892944 0.988833261,14.0654203 1.26109636,14.1006419 L1.32,14.1044444 L13.5422222,14.1044444 C13.8194035,14.1044444 14.0689378,13.8522461 14.1009771,13.5059671 L14.1044444,13.4303821 L14.1044444,10.0977778 C14.1044444,9.73326984 14.3999365,9.43777778 14.7644444,9.43777778 Z M1.32,-0.562222222 L13.5422222,-0.562222222 C14.5585866,-0.562222222 15.3669682,0.279849518 15.4215101,1.31681635 L15.4244444,1.42863623 L15.4244444,4.76444444 C15.4244444,5.12895238 15.1289524,5.42444444 14.7644444,5.42444444 C14.424237,5.42444444 14.1441501,5.16703802 14.1083172,4.83635872 L14.1044444,4.76444444 L14.1044444,1.42863623 C14.1044444,1.07167264 13.8737255,0.796648833 13.6011932,0.761565497 L13.5422222,0.757777778 L1.32,0.757777778 C1.04245815,0.757777778 0.793236395,1.00900401 0.761240347,1.3534558 L0.757777778,1.42863623 L0.757777778,4.76444444 C0.757777778,5.12895238 0.462285713,5.42444444 0.0977777778,5.42444444 C-0.242429628,5.42444444 -0.522516543,5.16703802 -0.558349432,4.83635872 L-0.562222222,4.76444444 L-0.562222222,1.42863623 C-0.562222222,0.3785738 0.211112304,-0.499706989 1.21192453,-0.55902949 L1.32,-0.562222222 L13.5422222,-0.562222222 L1.32,-0.562222222 Z" id="形状备份-2" fill-rule="nonzero"></path>
                                <rect id="矩形" x="2.54222222" y="6.82" width="9.77777778" height="1.22222222" rx="0.611111111"></rect>
                            </g>
                        </g>
                    </g>
                </g>
            </g>
        </g>
    </g>
</svg>