<?xml version="1.0" encoding="UTF-8"?>
<svg width="28px" height="29px" viewBox="0 0 28 29" version="1.1" xmlns="http://www.w3.org/2000/svg" xmlns:xlink="http://www.w3.org/1999/xlink">
    <!-- Generator: Sketch 58 (84663) - https://sketch.com -->
    <title>公共/删除勾选</title>
    <desc>Created with Sketch.</desc>
    <g id="页面-1" stroke="none" stroke-width="1" fill="none" fill-rule="evenodd">
        <g id="房间-房间管理（删除房间）" transform="translate(-339.000000, -223.000000)">
            <g id="客厅备份" transform="translate(0.000000, 202.500000)">
                <g id="编组-4" transform="translate(339.000000, 21.000000)">
                    <g id="房间管理/删除勾选icon">
                        <g id="房间管理/点删除icon">
                            <g id="首页/手动添加icon">
                                <g id="编组-9">
                                    <rect id="矩形" fill="#D8D8D8" opacity="0" x="0" y="0" width="28" height="28"></rect>
                                    <path d="M14,24.1111111 C19.5842125,24.1111111 24.1111111,19.5842125 24.1111111,14 C24.1111111,8.41578753 19.5842125,3.88888889 14,3.88888889 C8.41578753,3.88888889 3.88888889,8.41578753 3.88888889,14 C3.88888889,19.5842125 8.41578753,24.1111111 14,24.1111111 Z" id="路径" fill="#F4873C" fill-rule="nonzero"></path>
                                    <path d="M9.25950999,12.7641962 C9.01846921,12.4956915 8.60540099,12.4734276 8.33689629,12.7144684 C8.06839159,12.9555091 8.04612768,13.3685774 8.28716846,13.6370821 L12.2764463,18.0808939 C12.533142,18.3668372 12.9799784,18.3705741 13.2414205,18.0889639 L19.6286984,11.2089602 C19.8741961,10.9445243 19.8588438,10.5311415 19.5944079,10.2856438 C19.3299721,10.0401461 18.9165893,10.0554985 18.6710916,10.3199343 L12.7707206,16.6754703 L9.25950999,12.7641962 Z" id="路径-3" fill="#FFFFFF" fill-rule="nonzero"></path>
                                </g>
                            </g>
                        </g>
                    </g>
                </g>
            </g>
        </g>
    </g>
</svg>