<?xml version="1.0" encoding="UTF-8"?>
<svg width="36px" height="36px" viewBox="0 0 36 36" version="1.1" xmlns="http://www.w3.org/2000/svg" xmlns:xlink="http://www.w3.org/1999/xlink">
    <!-- Generator: Sketch 58 (84663) - https://sketch.com -->
    <title>管理房间/删除icon</title>
    <desc>Created with Sketch.</desc>
    <g id="页面-1" stroke="none" stroke-width="1" fill="none" fill-rule="evenodd">
        <g id="房间-房间管理（删除房间）" transform="translate(-170.000000, -770.000000)">
            <g id="编组-3" transform="translate(170.000000, 770.000000)">
                <g id="房间管理/删除icon">
                    <g id="编组-10">
                        <rect id="矩形" stroke="#979797" fill="#D8D8D8" opacity="0" x="0" y="0" width="36" height="36"></rect>
                        <rect id="矩形" fill="#999999" x="6" y="9.98" width="24" height="1.68" rx="0.84"></rect>
                        <path d="M8.16,9.98 L27.84,9.98 L27.84,25.82 C27.84,28.4930582 25.6730582,30.66 23,30.66 L13,30.66 C10.3269418,30.66 8.16,28.4930582 8.16,25.82 L8.16,9.98 Z M9.84,25.82 C9.84,27.5652198 11.2547802,28.98 13,28.98 L23,28.98 C24.7452198,28.98 26.16,27.5652198 26.16,25.82 L26.16,11.66 L9.84,11.66 L9.84,25.82 Z" id="矩形" fill="#999999" fill-rule="nonzero"></path>
                        <rect id="矩形" fill="#999999" x="11.84" y="15.82" width="1.68" height="8" rx="0.84"></rect>
                        <rect id="矩形备份-7" fill="#999999" x="17.16" y="15.82" width="1.68" height="8" rx="0.84"></rect>
                        <rect id="矩形备份-8" fill="#999999" x="22.48" y="15.82" width="1.68" height="8" rx="0.84"></rect>
                        <path d="M18,5 C20.6730582,5 22.84,7.16694181 22.84,9.84 C22.84,10.2519042 22.7883515,10.6577452 22.6872321,11.0502995 L22.5248293,11.6807613 L13.4751707,11.6807613 L13.3127679,11.0502995 C13.2116485,10.6577452 13.16,10.2519042 13.16,9.84 C13.16,7.16694181 15.3269418,5 18,5 Z M21.16,9.84 C21.16,8.09478019 19.7452198,6.68 18,6.68 C16.3149602,6.68 14.937964,7.9988914 14.8450023,9.66068322 L14.84,9.84 L14.843999,10.0007613 L21.1560009,10.0007613 L21.16,9.84 Z" id="路径" fill="#999999" fill-rule="nonzero"></path>
                    </g>
                </g>
            </g>
        </g>
    </g>
</svg>