<?xml version="1.0" encoding="UTF-8"?>
<svg width="36px" height="36px" viewBox="0 0 36 36" version="1.1" xmlns="http://www.w3.org/2000/svg" xmlns:xlink="http://www.w3.org/1999/xlink">
    <!-- Generator: Sketch 58 (84663) - https://sketch.com -->
    <title>注册登陆/手机icon</title>
    <desc>Created with Sketch.</desc>
    <g id="页面-1" stroke="none" stroke-width="1" fill="none" fill-rule="evenodd">
        <g id="注册/登陆页2" transform="translate(-21.000000, -236.000000)">
            <g id="编组备份" transform="translate(12.000000, 224.000000)">
                <g id="编组-5" transform="translate(9.000000, 12.000000)">
                    <g id="注册登陆/手机icon">
                        <g id="shouji">
                            <rect id="矩形" fill="#D8D8D8" opacity="0" x="0" y="0" width="36" height="36"></rect>
                            <path d="M27.9622213,5.76056338 C27.9622213,4.76291079 27.1993105,4 26.2016579,4 L9.76973297,4 C8.77208041,4 8.00916959,4.76291079 8.00916959,5.76056338 L8.00916959,30.4084507 C8.00916959,31.4061033 8.77208038,32.1690141 9.76973297,32.1690141 L26.2016579,32.1690141 C27.1993105,32.1690141 27.9622213,31.4061033 27.9622213,30.4084507 L27.9622213,5.76056338 Z M26.2822213,5.76056338 L26.2822213,30.4084507 C26.2822213,30.4782649 26.2714721,30.4890141 26.2016579,30.4890141 L9.76973297,30.4890141 C9.7138816,30.4890141 9.69583186,30.4821346 9.69084602,30.443638 L9.68916959,5.76056338 C9.68916959,5.70471202 9.69604907,5.68666227 9.73454573,5.68167643 L26.2016579,5.68 C26.2714721,5.68 26.2822213,5.69074917 26.2822213,5.76056338 Z" id="路径" fill="#999999" fill-rule="nonzero"></path>
                            <rect id="矩形" fill="#999999" x="15" y="27.5" width="6" height="1.68" rx="0.84"></rect>
                            <rect id="矩形" fill="#999999" x="9" y="24.5" width="18" height="1.68"></rect>
                        </g>
                    </g>
                </g>
            </g>
        </g>
    </g>
</svg>