<?xml version="1.0" encoding="UTF-8"?>
<svg width="46px" height="46px" viewBox="0 0 46 46" version="1.1" xmlns="http://www.w3.org/2000/svg" xmlns:xlink="http://www.w3.org/1999/xlink">
    <!-- Generator: Sketch 58 (84663) - https://sketch.com -->
    <title>书房</title>
    <desc>Created with Sketch.</desc>
    <g id="页面-1" stroke="none" stroke-width="1" fill="none" fill-rule="evenodd">
        <g id="添加房间" transform="translate(-210.000000, -405.000000)">
            <g id="组件备份" transform="translate(12.000000, 150.000000)">
                <g id="书房" transform="translate(183.000000, 240.000000)">
                    <g id="客厅">
                        <g id="编组" transform="translate(15.000000, 15.000000)">
                            <g id="公共/添加房间/书房">
                                <g id="编组-9">
                                    <rect id="矩形" fill="#D8D8D8" opacity="0" x="0" y="0" width="46" height="46"></rect>
                                    <path d="M11.5,6.38888889 L34.5,6.38888889 C35.9113944,6.38888889 37.0555556,7.53305008 37.0555556,8.94444444 L37.0555556,35.7777778 C37.0555556,37.1891721 35.9113944,38.3333333 34.5,38.3333333 L11.5,38.3333333 C10.0886056,38.3333333 8.94444444,37.1891721 8.94444444,35.7777778 L8.94444444,8.94444444 C8.94444444,7.53305008 10.0886056,6.38888889 11.5,6.38888889 Z M11.5,8.53555556 C11.2741769,8.53555556 11.0911111,8.71862135 11.0911111,8.94444444 L11.0911111,35.7777778 C11.0911111,36.0036009 11.2741769,36.1866667 11.5,36.1866667 L34.5,36.1866667 C34.7258231,36.1866667 34.9088889,36.0036009 34.9088889,35.7777778 L34.9088889,8.94444444 C34.9088889,8.71862135 34.7258231,8.53555556 34.5,8.53555556 L11.5,8.53555556 Z" id="矩形" fill="#666666" fill-rule="nonzero"></path>
                                    <rect id="矩形" fill="#666666" x="22.2333333" y="7.66666667" width="2.14666667" height="29.3888889"></rect>
                                    <rect id="矩形" fill="#666666" x="17.8888889" y="12.7777778" width="2.14666667" height="5.11111111" rx="0.84"></rect>
                                    <rect id="矩形备份-8" fill="#666666" x="26.1433333" y="21.7222222" width="2.14666667" height="3.83333333" rx="0.84"></rect>
                                    <polygon id="矩形备份-7" fill="#666666" transform="translate(30.257778, 18.093333) rotate(-90.000000) translate(-30.257778, -18.093333) " points="29.1844444 11.7044444 31.3311111 11.7044444 31.3311111 24.4822222 29.1844444 24.4822222"></polygon>
                                    <path d="M30.0136091,12.6552644 L27.3554591,17.3609894 C27.0639083,17.8771221 27.2459679,18.5318789 27.7621005,18.8234297 C28.2782332,19.1149806 28.93299,18.932921 29.2245409,18.4167883 L31.8826908,13.7110633 C32.1742416,13.1949306 31.992182,12.5401738 31.4760494,12.248623 C30.9599167,11.9570721 30.3051599,12.1391317 30.0136091,12.6552644 Z" id="路径-2" fill="#666666" fill-rule="nonzero"></path>
                                    <path d="M33.6680535,12.6552644 L31.0099036,17.3609894 C30.7183528,17.8771221 30.9004123,18.5318789 31.416545,18.8234297 C31.9326777,19.1149806 32.5874345,18.932921 32.8789853,18.4167883 L35.5371352,13.7110633 C35.828686,13.1949306 35.6466265,12.5401738 35.1304938,12.248623 C34.6143612,11.9570721 33.9596043,12.1391317 33.6680535,12.6552644 Z" id="路径-2备份" fill="#666666" fill-rule="nonzero"></path>
                                    <rect id="矩形" fill="#666666" x="14.0555556" y="37.0555556" width="2.14666667" height="2.55555556" rx="0.84"></rect>
                                    <rect id="矩形备份-9" fill="#666666" x="29.7977778" y="37.0555556" width="2.14666667" height="2.55555556" rx="0.84"></rect>
                                </g>
                            </g>
                        </g>
                    </g>
                </g>
            </g>
        </g>
    </g>
</svg>