<?xml version="1.0" encoding="UTF-8"?>
<svg width="88px" height="88px" viewBox="0 0 88 88" version="1.1" xmlns="http://www.w3.org/2000/svg" xmlns:xlink="http://www.w3.org/1999/xlink">
    <!-- Generator: Sketch 58 (84663) - https://sketch.com -->
    <title>公共/提示icon</title>
    <desc>Created with Sketch.</desc>
    <g id="页面-1" stroke="none" stroke-width="1" fill="none" fill-rule="evenodd">
        <g id="注册/登陆页-弹窗提示1" transform="translate(-144.000000, -350.000000)">
            <g id="弹窗">
                <g id="编组-5" transform="translate(116.000000, 346.000000)">
                    <g id="编组-6" transform="translate(28.000000, 4.000000)">
                        <g id="公共/提示icon">
                            <g id="首页/手动添加icon">
                                <g id="编组-9">
                                    <rect id="矩形" fill="#EFEEEE" opacity="0" x="0" y="0" width="88" height="88"></rect>
                                    <path d="M44,75.7777778 C61.550382,75.7777778 75.7777778,61.550382 75.7777778,44 C75.7777778,26.449618 61.550382,12.2222222 44,12.2222222 C26.449618,12.2222222 12.2222222,26.449618 12.2222222,44 C12.2222222,61.550382 26.449618,75.7777778 44,75.7777778 Z M44,71.6711111 C28.7176673,71.6711111 16.3288889,59.2823327 16.3288889,44 C16.3288889,28.7176673 28.7176673,16.3288889 44,16.3288889 C59.2823327,16.3288889 71.6711111,28.7176673 71.6711111,44 C71.6711111,59.2823327 59.2823327,71.6711111 44,71.6711111 Z" id="椭圆形" fill="#FFFFFF" fill-rule="nonzero"></path>
                                    <g id="编组" transform="translate(29.333333, 29.333333)" fill="#FFFFFF">
                                        <path d="M-0.112820513,12.4177778 L29.0550427,12.4177778 C30.4507654,12.4177778 31.5822222,13.3370864 31.5822222,14.4711111 C31.5822222,15.6051358 30.4507654,16.5244444 29.0550427,16.5244444 L-0.112820513,16.5244444 C-1.5085432,16.5244444 -2.64,15.6051358 -2.64,14.4711111 C-2.64,13.3370864 -1.5085432,12.4177778 -0.112820513,12.4177778 Z" id="矩形" transform="translate(14.471111, 14.471111) rotate(-315.000000) translate(-14.471111, -14.471111) "></path>
                                        <path d="M12.2222222,29.2505983 L12.2222222,0.0827350427 C12.2222222,-1.31298765 13.1415309,-2.44444444 14.2755556,-2.44444444 C15.4095802,-2.44444444 16.3288889,-1.31298765 16.3288889,0.0827350427 L16.3288889,29.2505983 C16.3288889,30.646321 15.4095802,31.7777778 14.2755556,31.7777778 C13.1415309,31.7777778 12.2222222,30.646321 12.2222222,29.2505983 Z" id="矩形备份-6" transform="translate(14.275556, 14.666667) rotate(-315.000000) translate(-14.275556, -14.666667) "></path>
                                    </g>
                                </g>
                            </g>
                        </g>
                    </g>
                </g>
            </g>
        </g>
    </g>
</svg>