<?xml version="1.0" encoding="UTF-8"?>
<svg width="22px" height="22px" viewBox="0 0 22 22" version="1.1" xmlns="http://www.w3.org/2000/svg" xmlns:xlink="http://www.w3.org/1999/xlink">
    <!-- Generator: Sketch 58 (84663) - https://sketch.com -->
    <title>公共/图片删除</title>
    <desc>Created with Sketch.</desc>
    <g id="页面-1" stroke="none" stroke-width="1" fill="none" fill-rule="evenodd">
        <g id="净水器-报修-删除图片" transform="translate(-77.000000, -548.000000)">
            <g id="编组-4" transform="translate(12.000000, 548.000000)">
                <g id="删除" transform="translate(65.000000, 0.000000)">
                    <g id="公共/图片删除">
                        <g id="公共/提示icon">
                            <g id="首页/手动添加icon">
                                <g id="编组-9">
                                    <rect id="矩形" fill="#EFEEEE" opacity="0" x="0" y="0" width="22" height="22"></rect>
                                    <g id="编组" transform="translate(3.055556, 3.055556)">
                                        <path d="M7.94444444,15.8888889 C12.33204,15.8888889 15.8888889,12.33204 15.8888889,7.94444444 C15.8888889,3.55684893 12.33204,0 7.94444444,0 C3.55684893,0 0,3.55684893 0,7.94444444 C0,12.33204 3.55684893,15.8888889 7.94444444,15.8888889 Z" id="路径" fill="#F4873C" fill-rule="nonzero"></path>
                                        <path d="M4.24957265,7.38222222 L11.5415385,7.38222222 C11.8904691,7.38222222 12.1733333,7.61204938 12.1733333,7.89555556 C12.1733333,8.17906173 11.8904691,8.40888889 11.5415385,8.40888889 L4.24957265,8.40888889 C3.90064198,8.40888889 3.61777778,8.17906173 3.61777778,7.89555556 C3.61777778,7.61204938 3.90064198,7.38222222 4.24957265,7.38222222 Z" id="矩形" fill="#FFFFFF" transform="translate(7.895556, 7.895556) rotate(-315.000000) translate(-7.895556, -7.895556) "></path>
                                        <path d="M7.33333333,11.5904274 L7.33333333,4.29846154 C7.33333333,3.94953087 7.5631605,3.66666667 7.84666667,3.66666667 C8.13017284,3.66666667 8.36,3.94953087 8.36,4.29846154 L8.36,11.5904274 C8.36,11.939358 8.13017284,12.2222222 7.84666667,12.2222222 C7.5631605,12.2222222 7.33333333,11.939358 7.33333333,11.5904274 Z" id="矩形备份-6" fill="#FFFFFF" transform="translate(7.846667, 7.944444) rotate(-315.000000) translate(-7.846667, -7.944444) "></path>
                                    </g>
                                </g>
                            </g>
                        </g>
                    </g>
                </g>
            </g>
        </g>
    </g>
</svg>