<?xml version="1.0" encoding="UTF-8"?>
<svg width="38px" height="39px" viewBox="0 0 38 39" version="1.1" xmlns="http://www.w3.org/2000/svg" xmlns:xlink="http://www.w3.org/1999/xlink">
    <!-- Generator: Sketch 58 (84663) - https://sketch.com -->
    <title>公共/添加</title>
    <desc>Created with Sketch.</desc>
    <g id="页面-1" stroke="none" stroke-width="1" fill="none" fill-rule="evenodd">
        <g id="净水器-报修-删除图片" transform="translate(-305.000000, -569.000000)">
            <g id="添加图片" transform="translate(287.000000, 558.500000)">
                <g id="编组-3" transform="translate(14.000000, 11.000000)">
                    <g id="公共/添加-2" transform="translate(4.000000, 0.000000)">
                        <g id="公共/相机">
                            <g id="xiangji">
                                <rect id="矩形" fill="#D8D8D8" opacity="0" x="0" y="0" width="38" height="38"></rect>
                                <path d="M30.200275,29.4362305 L7.66341237,29.4362305 C6.34973516,29.4362305 5.28419698,28.3701566 5.28419698,27.0558189 L5.28419698,14.8130067 C5.28419698,13.498669 6.34973518,12.4325951 7.66341237,12.4325951 L10.7773139,12.4325951 C11.1470897,12.4325951 11.5071346,12.1064446 11.5411929,11.7364829 L11.6336369,10.7531636 C11.7552737,9.49237299 12.884063,8.46524243 14.153951,8.46524243 L23.7146019,8.46524243 C24.9844899,8.46524243 26.1132792,9.49237299 26.234916,10.7531636 L26.3273599,11.7364829 C26.3614182,12.1064446 26.7214631,12.4325951 27.0912389,12.4325951 L30.2051405,12.4325951 C31.5188177,12.4325951 32.5843559,13.498669 32.5843559,14.8130067 L32.5843559,27.0558189 C32.5794904,28.3701566 31.5139522,29.4362305 30.200275,29.4362305 Z M30.200275,27.6628972 C30.5352684,27.6628972 30.8097783,27.3886366 30.8110225,27.0558189 L30.8110225,14.8130067 C30.8110225,14.4778545 30.5392331,14.2059284 30.2051405,14.2059284 L27.0912389,14.2059284 C25.8054345,14.2059284 24.6795938,13.1819223 24.5618116,11.9024659 L24.4697783,10.9234581 C24.4357579,10.5708293 24.0700238,10.2385758 23.7146019,10.2385758 L14.153951,10.2385758 C13.7985291,10.2385758 13.4327949,10.5708293 13.3991852,10.9191465 L13.3070593,11.8990468 C13.1889591,13.1819223 12.0631183,14.2059284 10.7773139,14.2059284 L7.66341237,14.2059284 C7.32931973,14.2059284 7.05753031,14.4778545 7.05753031,14.8130067 L7.05753031,27.0558189 C7.05753031,27.3909711 7.32931971,27.6628972 7.66341237,27.6628972 L30.200275,27.6628972 Z" id="路径" fill="#666666" fill-rule="nonzero"></path>
                                <path d="M18.9318437,25.989745 C15.7790183,25.989745 13.214915,23.4243526 13.214915,20.2699421 C13.214915,17.1155316 15.7790183,14.5501392 18.9318437,14.5501392 C22.084669,14.5501392 24.6536378,17.1106637 24.6536378,20.2699421 C24.6536378,23.4292205 22.084669,25.989745 18.9318437,25.989745 Z M18.9318437,24.2164117 C21.1083924,24.2164117 22.8803045,22.4467299 22.8803045,20.2699421 C22.8803045,18.0931544 21.1083923,16.3234725 18.9318437,16.3234725 C16.7586029,16.3234725 14.9882483,18.0947171 14.9882483,20.2699421 C14.9882483,22.4451671 16.7586029,24.2164117 18.9318437,24.2164117 Z" id="路径" fill="#666666" fill-rule="nonzero"></path>
                            </g>
                        </g>
                    </g>
                </g>
            </g>
        </g>
    </g>
</svg>