<?xml version="1.0" encoding="UTF-8"?>
<svg width="100px" height="100px" viewBox="0 0 100 100" version="1.1" xmlns="http://www.w3.org/2000/svg" xmlns:xlink="http://www.w3.org/1999/xlink">
    <!-- Generator: Sketch 58 (84663) - https://sketch.com -->
    <title>公共/灰色加载icon</title>
    <desc>Created with Sketch.</desc>
    <g id="页面-1" stroke="none" stroke-width="1" fill="none" fill-rule="evenodd">
        <g id="净水器-设备界面-固件升级-安装完成份" transform="translate(-137.000000, -186.000000)">
            <g id="公共/灰色加载icon" transform="translate(137.000000, 186.000000)">
                <g id="房间管理/勾选icon">
                    <g id="房间管理/点删除icon">
                        <g id="首页/手动添加icon">
                            <g id="编组-9">
                                <rect id="矩形" fill="#D8D8D8" opacity="0" x="0" y="0" width="100" height="100"></rect>
                                <path d="M50,86.1111111 C69.943616,86.1111111 86.1111111,69.943616 86.1111111,50 C86.1111111,30.056384 69.943616,13.8888889 50,13.8888889 C30.056384,13.8888889 13.8888889,30.056384 13.8888889,50 C13.8888889,69.943616 30.056384,86.1111111 50,86.1111111 Z" id="路径" fill="#32BAC0" fill-rule="nonzero"></path>
                                <path d="M33.0696785,45.586415 C32.2088186,44.6274696 30.733575,44.5479557 29.7746296,45.4088156 C28.8156843,46.2696755 28.7361703,47.7449191 29.5970302,48.7038645 L43.8444511,64.5746212 C44.7612214,65.5958473 46.3570657,65.6091932 47.2907875,64.6034425 L70.1024944,40.0320006 C70.9792719,39.087587 70.924442,37.6112198 69.9800283,36.7344423 C69.0356146,35.8576648 67.5592475,35.9124947 66.68247,36.8569084 L45.6097163,59.5552511 L33.0696785,45.586415 Z" id="路径-3" fill="#FFFFFF" fill-rule="nonzero"></path>
                            </g>
                        </g>
                    </g>
                </g>
            </g>
        </g>
    </g>
</svg>