<?xml version="1.0" encoding="UTF-8"?>
<svg width="26px" height="26px" viewBox="0 0 26 26" version="1.1" xmlns="http://www.w3.org/2000/svg" xmlns:xlink="http://www.w3.org/1999/xlink">
    <!-- Generator: Sketch 58 (84663) - https://sketch.com -->
    <title>我的/帮助反馈</title>
    <desc>Created with Sketch.</desc>
    <g id="页面-1" stroke="none" stroke-width="1" fill="none" fill-rule="evenodd">
        <g id="我的" transform="translate(-16.000000, -344.000000)">
            <g id="帮助/设置" transform="translate(12.000000, 329.000000)">
                <g id="编组-3" transform="translate(4.000000, 15.000000)">
                    <g id="我的/帮助反馈-2">
                        <g id="我的/帮助反馈">
                            <g id="bangzhu">
                                <g>
                                    <rect id="矩形" fill="#D8D8D8" opacity="0" x="0" y="0" width="26" height="26"></rect>
                                    <g id="编组-9" transform="translate(3.623692, 5.416667)" fill="#32BAC0" fill-rule="nonzero">
                                        <path d="M16.4591623,0 L14.6285735,0 C13.3162184,0 12.0179778,0.266285248 10.8152709,0.782051768 L9.77200179,1.229491 C9.63411482,1.28859366 9.48565163,1.31904707 9.33563184,1.31900108 C9.18561204,1.31904707 9.03714886,1.28859366 8.89926189,1.229491 L7.85594828,0.782051768 C6.65326363,0.266285248 5.35502302,0 4.04260127,0 L2.21207912,0 C0.990434422,0 0,0.972474616 0,2.17198074 L0,11.807817 C0,13.0073898 0.990434422,13.9798199 2.21207912,13.9798199 L4.04260127,13.9798199 C5.35502302,13.9798199 6.65326363,14.2460385 7.85594828,14.7618273 L8.89926189,15.2092665 C9.03714886,15.2683692 9.18561204,15.2987766 9.33563184,15.2987766 C9.48565163,15.2987766 9.63411482,15.2683692 9.77200179,15.2092665 L10.8152709,14.7618273 C12.0180001,14.2460163 13.3162184,13.9798199 14.6285735,13.9798199 L16.4591623,13.9798199 C17.680807,13.9798199 18.6711303,13.0073898 18.6711303,11.807817 L18.6711303,2.17195852 C18.6711303,0.972452388 17.680807,0 16.4591623,0 Z M8.33417894,13.646716 C6.98029207,13.0660819 5.51933995,12.7664866 4.04260127,12.7664866 L2.21207912,12.7664866 C1.65559833,12.7664866 1.21333333,12.3322425 1.21333333,11.807817 L1.21333333,2.17198074 C1.21333333,1.64760117 1.65561935,1.21333333 2.21207912,1.21333333 L4.04260127,1.21333333 C5.19065448,1.21333333 6.3261945,1.44622157 7.3777342,1.89717018 L8.42103123,2.34460231 C8.71029986,2.4685919 9.02152028,2.53243076 9.3360038,2.53233435 C9.6497434,2.53243076 9.96096382,2.4685919 10.2500135,2.34469616 L11.2935188,1.89715569 C12.3450383,1.44622408 13.4805807,1.21333333 14.6285735,1.21333333 L16.4591623,1.21333333 C17.0155905,1.21333333 17.457797,1.64754706 17.457797,2.17195852 L17.457797,11.807817 C17.457797,12.3322825 17.0156035,12.7664866 16.4591623,12.7664866 L14.6285735,12.7664866 C13.1518639,12.7664866 11.6909362,13.0660745 10.337037,13.6467174 L9.33563092,14.0762023 L8.33417894,13.646716 Z" id="路径"></path>
                                        <path d="M7.07178491,3.53128025 C5.81962187,3.02013705 4.58479627,2.93496133 3.35294915,2.92065882 C2.9447192,2.91651252 2.61406316,3.25745989 2.61397425,3.67522543 L2.61397425,10.1124601 C2.61404093,10.5310703 2.9447192,10.8689281 3.35294915,10.8716621 C4.58512968,10.8809532 5.82133339,10.9366775 7.08223182,11.2708232 C7.47449133,11.3808909 7.78665376,11.1272984 7.82368451,10.6775168 L7.82685968,10.2583909 C7.824544,8.99120211 7.81504972,4.58462767 7.81504972,4.39712963 C7.81568576,4.13717066 7.53577257,3.77226852 7.16599195,3.57653158 L7.07178491,3.53128025 Z M6.410071,4.57574423 L6.60211641,4.65088146 L6.61288605,9.91983766 C5.77212396,9.75746957 4.90844966,9.68627708 3.82730757,9.66463641 L3.82730757,4.1447698 C4.89411263,4.18119601 5.66554614,4.3015469 6.410071,4.57574423 Z" id="路径"></path>
                                        <path d="M11.4257722,5.53906399 C12.7350511,4.62834526 14.231694,4.32419738 15.9520894,4.62691666 C16.2820726,4.68498024 16.5966468,4.46454576 16.6547103,4.13456248 C16.7127739,3.8045792 16.4923394,3.49000507 16.1623561,3.4319415 C14.1331805,3.0748895 12.3112401,3.44514436 10.7329236,4.54300239 C10.4578688,4.73432722 10.3899923,5.11240263 10.5813171,5.38745745 C10.7726419,5.66251226 11.1507173,5.73038882 11.4257722,5.53906399 Z" id="路径-4"></path>
                                        <path d="M11.4257722,9.55586939 C12.7350511,8.64515066 14.231694,8.34100278 15.9520894,8.64372206 C16.2820726,8.70178564 16.5966468,8.48135116 16.6547103,8.15136788 C16.7127739,7.8213846 16.4923394,7.50681047 16.1623561,7.4487469 C14.1331805,7.0916949 12.3112401,7.46194976 10.7329236,8.55980779 C10.4578688,8.75113262 10.3899923,9.12920803 10.5813171,9.40426285 C10.7726419,9.67931766 11.1507173,9.74719422 11.4257722,9.55586939 Z" id="路径-4备份"></path>
                                    </g>
                                </g>
                            </g>
                        </g>
                    </g>
                </g>
            </g>
        </g>
    </g>
</svg>