<?xml version="1.0" encoding="UTF-8"?>
<svg width="26px" height="26px" viewBox="0 0 26 26" version="1.1" xmlns="http://www.w3.org/2000/svg" xmlns:xlink="http://www.w3.org/1999/xlink">
    <!-- Generator: Sketch 58 (84663) - https://sketch.com -->
    <title>我的/产品手册</title>
    <desc>Created with Sketch.</desc>
    <g id="页面-1" stroke="none" stroke-width="1" fill="none" fill-rule="evenodd">
        <g id="我的" transform="translate(-19.000000, -214.000000)">
            <g id="操作手册" transform="translate(12.000000, 199.000000)">
                <g id="我的/产品手册-3" transform="translate(7.000000, 15.000000)">
                    <g id="我的/产品手册">
                        <g>
                            <rect id="矩形" fill="#D8D8D8" opacity="0" x="0" y="0" width="26" height="26"></rect>
                            <g id="编组-9" transform="translate(5.055556, 4.333333)" fill="#32BAC0" fill-rule="nonzero">
                                <path d="M13.733747,1.77635684e-15 L2.11288416,1.77635684e-15 C0.950797872,1.77635684e-15 4.61852778e-14,0.950797872 4.61852778e-14,2.11288416 L4.61852778e-14,15.4944838 C4.61852778e-14,16.6565701 0.950797872,17.607368 2.11288416,17.607368 L13.733747,17.607368 C14.8958333,17.607368 15.8466312,16.6565701 15.8466312,15.4944838 L15.8466312,2.11288416 C15.8466312,0.950797872 14.8958333,1.77635684e-15 13.733747,1.77635684e-15 Z M13.733747,1.21333333 C14.2257278,1.21333333 14.6332979,1.62090337 14.6332979,2.11288416 L14.6332979,15.4944838 C14.6332979,15.9864646 14.2257278,16.3940347 13.733747,16.3940347 L2.11288416,16.3940347 C1.62090337,16.3940347 1.21333333,15.9864646 1.21333333,15.4944838 L1.21333333,2.11288416 C1.21333333,1.62090337 1.62090337,1.21333333 2.11288416,1.21333333 L13.733747,1.21333333 Z" id="路径"></path>
                                <path d="M8.803684,-1.77635684e-15 L3.16932624,-1.77635684e-15 L3.16932624,8.86530979 C3.16932624,9.29008754 3.51707176,9.57180543 3.8780228,9.57180543 C4.05189556,9.57180543 4.22796924,9.50797872 4.37102911,9.36491886 L5.98650512,7.74724192 L7.60198114,9.36271794 C7.745041,9.5057778 7.92111468,9.56960451 8.09498744,9.56960451 C8.45593849,9.56960451 8.803684,9.28788662 8.803684,8.86310887 L8.803684,-1.77635684e-15 Z M7.59035067,1.21333333 L7.59035067,7.63517501 L5.98592088,6.03074523 L4.38265957,7.63619081 L4.38265957,1.21333333 L7.59035067,1.21333333 Z" id="路径"></path>
                            </g>
                        </g>
                    </g>
                </g>
            </g>
        </g>
    </g>
</svg>