<?xml version="1.0" encoding="UTF-8"?>
<svg width="26px" height="26px" viewBox="0 0 26 26" version="1.1" xmlns="http://www.w3.org/2000/svg" xmlns:xlink="http://www.w3.org/1999/xlink">
    <!-- Generator: Sketch 58 (84663) - https://sketch.com -->
    <title>我的/产品手册</title>
    <desc>Created with Sketch.</desc>
    <g id="页面-1" stroke="none" stroke-width="1" fill="none" fill-rule="evenodd">
        <g id="我的" transform="translate(-19.000000, -279.000000)">
            <g id="家庭管理" transform="translate(12.000000, 264.000000)">
                <g id="我的/产品手册-4" transform="translate(7.000000, 15.000000)">
                    <g id="我的/家庭管理">
                        <g>
                            <rect id="矩形" fill="#D8D8D8" opacity="0" x="0" y="0" width="26" height="26"></rect>
                            <path d="M21.7136386,11.6964028 L14.6217814,4.32173326 C14.1818973,3.86488242 13.5921235,3.61111111 12.9613384,3.61111111 C12.330345,3.61111111 11.7406754,3.86248836 11.3006872,4.32173326 L4.21132817,11.6964028 C3.47895121,12.4577168 3.57304852,13.1153572 3.69400106,13.3908833 L3.73368021,13.472613 C3.85679164,13.7049515 4.16979627,14.1207621 4.9098759,14.1207621 L5.94921415,14.1207621 L5.94921415,19.7936649 C5.94921415,21.0547148 6.83637288,22.243214 8.10699902,22.2931771 L9.47880059,22.2954671 C10.7619175,22.2954671 11.1854596,21.4540039 11.2051326,20.2159579 L11.2088798,20.2135638 L11.2088798,16.291246 C11.2088798,15.6481782 11.1121803,15.288131 11.7697165,15.288131 L14.1554584,15.288131 C14.8127865,15.288131 14.715046,15.6459923 14.715046,16.291246 L14.715046,20.2760332 L14.7167115,20.3829182 C14.7326372,21.0529452 14.8947053,22.2954671 16.4429394,22.2954671 L17.814845,22.2954671 C19.0859916,22.2437344 19.9735667,21.054923 19.9735667,19.7935608 L19.9735667,14.120658 L21.012905,14.120658 C21.8516619,14.120658 22.1417606,13.5842824 22.2287798,13.3907792 L22.2618399,13.3019273 C22.3598876,12.989152 22.3740993,12.3852107 21.7136386,11.6964028 Z M21.0894793,12.9115661 L21.0468125,12.9079638 L18.7602334,12.9073247 L18.7602334,19.7935608 C18.7602334,20.497027 18.2951042,21.0601852 17.7677858,21.0806527 L17.7296267,21.0821338 L16.4429394,21.0821338 C16.0716724,21.0821338 15.9681565,20.9867152 15.9384701,20.5586172 L15.928393,20.2733587 L15.9283794,19.939868 L15.9307196,16.104312 L15.9337249,15.8721323 L15.930494,15.7288764 C15.9293984,15.7059996 15.9280021,15.6826926 15.9262719,15.6575606 C15.9086299,15.4013068 15.857737,15.1711612 15.7373843,14.937267 C15.4195652,14.3196153 14.8431936,14.0747977 14.1554584,14.0747977 L11.7697165,14.0747977 C11.0812862,14.0747977 10.5040078,14.3211446 10.1865474,14.9392273 C10.0665249,15.1729063 10.015636,15.4029329 9.99790171,15.6590123 L9.99084178,15.817142 L9.99554649,16.291246 L9.99554649,19.9704991 L9.9919524,20.19668 C9.980251,20.9330631 9.9101728,21.0683032 9.54614089,21.0810571 L8.18908211,21.0821338 L8.1546725,21.0807807 C7.62748844,21.060051 7.16254748,20.4969182 7.16254748,19.7936649 L7.16254748,12.9074288 L4.9098759,12.9074288 C4.87139317,12.9074288 4.84801499,12.909608 4.83353892,12.9115383 C4.85868157,12.8212429 4.93127066,12.6981542 5.08574136,12.5375802 L12.1753969,5.16260227 C12.3875528,4.94116363 12.6605837,4.82444444 12.9613384,4.82444444 C13.2599831,4.82444444 13.5349332,4.94228202 13.7477487,5.16330591 L20.8378506,12.5361487 C20.992418,12.6973502 21.0647206,12.8208818 21.0894793,12.9115661 Z" id="路径" fill="#32BAC0" fill-rule="nonzero"></path>
                        </g>
                    </g>
                </g>
            </g>
        </g>
    </g>
</svg>