<?xml version="1.0" encoding="UTF-8"?>
<svg width="26px" height="26px" viewBox="0 0 26 26" version="1.1" xmlns="http://www.w3.org/2000/svg" xmlns:xlink="http://www.w3.org/1999/xlink">
    <!-- Generator: Sketch 58 (84663) - https://sketch.com -->
    <title>我的/设置</title>
    <desc>Created with Sketch.</desc>
    <g id="页面-1" stroke="none" stroke-width="1" fill="none" fill-rule="evenodd">
        <g id="我的" transform="translate(-15.000000, -399.000000)">
            <g id="帮助/设置" transform="translate(12.000000, 329.000000)">
                <g id="编组-2" transform="translate(3.000000, 70.000000)">
                    <g id="我的/设置-2">
                        <g id="我的/设置">
                            <g>
                                <rect id="矩形" fill="#D8D8D8" opacity="0" x="0" y="0" width="26" height="26"></rect>
                                <g id="编组-9" transform="translate(4.333333, 4.351625)" fill="#32BAC0" fill-rule="nonzero">
                                    <path d="M8.58280066,5.15601019 C6.70543324,5.15601019 5.23585464,6.66598297 5.23585464,8.5914387 C5.23585464,10.518818 6.70543324,12.0268672 8.58280066,12.0268672 C10.427468,12.0268672 11.9297467,10.4861179 11.9297467,8.5914387 C11.9297467,6.75125956 10.5097688,5.24198437 8.73570552,5.15955563 L8.58280066,5.15601019 Z M10.7164134,8.5914387 C10.7164134,9.82250025 9.75066316,10.8135339 8.58280066,10.8135339 C7.38257636,10.8135339 6.44918797,9.8555434 6.44918797,8.5914387 C6.44918797,7.37359212 7.31780262,6.43824126 8.4553323,6.37298386 L8.58280066,6.36934353 C9.74990845,6.36934353 10.7164134,7.36153499 10.7164134,8.5914387 Z" id="路径"></path>
                                    <path d="M17.1032947,7.24390437 L17.0405717,6.91411862 C16.9482422,6.28512359 16.5269886,5.81193467 15.9306937,5.67728742 L15.83067,5.66189916 C15.3844105,5.5445637 15.0747218,5.28873392 14.8035038,4.81362146 C14.5553681,4.38852085 14.4938151,3.88263188 14.6207682,3.50561957 C14.8479855,2.96282283 14.715104,2.33042405 14.3140503,1.91748686 L14.2302912,1.83791715 C13.4301018,1.06081015 12.4818004,0.474132826 11.4604048,0.112508773 C10.9198923,-0.126009219 10.3178267,0.0201792278 9.85040838,0.499138745 L9.79462595,0.56453884 C9.33155338,1.17023776 8.30305206,1.3763908 7.41678326,0.559500305 L7.31519295,0.460668101 C7.06898082,0.208685383 6.53808594,-0.176021056 5.70712003,0.112508773 C4.64917732,0.572232968 3.76435251,1.11466905 3.046875,1.73596995 C2.53136837,2.11298226 2.31593277,2.79006559 2.51598011,3.39213117 C2.64870384,3.93264372 2.5929214,4.42891502 2.35440341,4.86748036 C2.15435606,5.22525735 1.76003196,5.52340484 1.2906901,5.66959329 C1.14065459,5.69459921 1.02908973,5.75615224 0.944454309,5.82347587 C0.6213009,6.01582909 0.378935843,6.31012951 0.207741477,6.71984187 L0.150035511,6.89680683 L0.150035511,6.97567165 C0.0480883049,7.52580186 0,8.05477321 0,8.63183287 C0,9.08578647 0.028852983,9.74171095 0.163500237,10.3168471 C0.257753314,10.9439186 0.679006866,11.4132604 1.27337831,11.5479077 L1.37340199,11.5632959 C1.81966146,11.6806314 2.12742661,11.9345377 2.40056818,12.4096501 C2.64870384,12.8347507 2.71025687,13.3406397 2.58330374,13.7195755 C2.3560865,14.2623723 2.48896801,14.8947711 2.89002166,15.3077082 L2.97378078,15.3872779 C3.71434067,16.1084422 4.58582098,16.6615112 5.56599755,17.0361135 L5.94563802,17.1723158 L6.06585878,17.1987644 C6.10961914,17.2059776 6.15818833,17.2107865 6.21108546,17.2107865 L6.32457386,17.2107865 C6.72659209,17.2107865 7.13053385,17.0338215 7.46907552,16.6818151 C7.99327367,16.0464796 9.00441834,15.8731189 9.8669885,16.6684324 L9.96582031,16.764527 C10.2697384,17.0761392 10.6352095,17.2492571 10.99491,17.2492571 L11.1241063,17.2470139 C11.2472853,17.241406 11.4021493,17.2217781 11.5354226,17.1530805 C12.5760535,16.7010504 13.4493371,16.168232 14.2014382,15.5276958 C14.7034801,15.1872306 14.9285334,14.4832178 14.7265625,13.8715346 C14.5938388,13.331022 14.6496212,12.8347507 14.8881392,12.3981089 C15.0881866,12.0384084 15.4825107,11.7421844 15.9518525,11.595996 C16.1038116,11.5729136 16.2134529,11.509437 16.3000118,11.4401899 C16.6231652,11.2478367 16.8636068,10.9554598 17.0348011,10.5457474 L17.0925071,10.3687824 L17.0925071,10.2899176 C17.1944543,9.73978742 17.2425426,9.20889253 17.2407269,8.57412691 C17.2083148,8.13556157 17.1759906,7.68591668 17.1032947,7.24390437 Z M15.9392495,9.83482945 L15.8853739,10.1449851 C15.8209263,10.2797444 15.7565645,10.3516567 15.6794114,10.3975812 L15.6355528,10.4236875 L15.591027,10.4375562 C14.8369642,10.6724282 14.1873822,11.1617572 13.8277626,11.8083808 C13.4345922,12.5280634 13.3455122,13.3353012 13.5482333,14.1608752 L13.5744111,14.2519619 C13.6090702,14.3569294 13.5659339,14.4926428 13.5204321,14.5235004 L13.4147337,14.6039676 C12.7591434,15.1623092 11.9915049,15.6310313 11.0631184,16.0353741 L10.99491,16.0359238 C10.9849804,16.0359238 10.9409758,16.0159464 10.8759018,15.9573226 L10.8344331,15.9173614 C9.53635159,14.5881708 7.64850063,14.6134179 6.5725143,15.8629598 C6.47162381,15.9613615 6.3881892,15.9974531 6.32457386,15.9974531 L6.26196785,15.9974531 L6.23771644,15.9889439 C5.30496212,15.6697615 4.49702837,15.1770397 3.82027827,14.518014 C3.6945986,14.4056737 3.6644994,14.2789457 3.70253214,14.1880897 L3.73378747,14.1050168 C3.97883056,13.3736003 3.8622255,12.5068666 3.4484479,11.7979918 C3.02457726,11.0606427 2.45841319,10.594006 1.68193822,10.3898467 L1.55789804,10.3640716 L1.51653868,10.3577086 C1.43303668,10.3303202 1.38267436,10.2650294 1.36335563,10.1365007 L1.3448899,10.0402676 C1.25450591,9.65419879 1.21333333,9.1531285 1.21333333,8.63183287 C1.21333333,8.12915477 1.2545878,7.67415408 1.34305667,7.19675599 L1.35714068,7.12075548 C1.42187679,6.98570189 1.48760311,6.91218672 1.56505473,6.86608457 L1.60424611,6.84275636 L1.65151561,6.82803307 C2.40374098,6.59373337 3.05343852,6.10346029 3.41343218,5.45962548 C3.80799601,4.73431147 3.89690364,3.92784845 3.69430935,3.10279054 L3.66741652,3.00954527 C3.63336544,2.90706461 3.67379511,2.7806698 3.76312824,2.71533662 L3.84114951,2.65319717 C4.45417039,2.12235068 5.21990707,1.65186994 6.14286974,1.24621364 C6.28023038,1.20325567 6.34214375,1.21462725 6.41161027,1.27461246 L6.44735722,1.30862973 C7.76964018,2.66453087 9.72651151,2.62116558 10.7403771,1.3249439 C10.855312,1.21285827 10.9186183,1.19964634 10.9705575,1.22256613 L11.0554566,1.25627217 C11.9173916,1.56143935 12.7142448,2.0569477 13.3849809,2.70833564 C13.5094734,2.81952137 13.5395726,2.94624937 13.5015398,3.03710536 L13.4708779,3.1184116 C13.2249226,3.84882434 13.341741,4.71622434 13.7556241,5.42527976 C14.1755288,6.16097139 14.7445001,6.63088441 15.5221338,6.83534842 L15.6461739,6.86112349 L15.6878581,6.86753644 C15.7567188,6.89017319 15.8033108,6.93969849 15.8279506,7.03066499 L15.8551576,7.17290622 C15.8929413,7.34598002 15.9234868,7.53360415 15.9494332,7.74766304 L15.9951237,8.20143993 L16.0273896,8.6195438 C16.0269891,9.06328598 15.9990793,9.44665374 15.9392495,9.83482945 Z" id="路径"></path>
                                </g>
                            </g>
                        </g>
                    </g>
                </g>
            </g>
        </g>
    </g>
</svg>