<?xml version="1.0" encoding="UTF-8"?>
<svg width="26px" height="26px" viewBox="0 0 26 26" version="1.1" xmlns="http://www.w3.org/2000/svg" xmlns:xlink="http://www.w3.org/1999/xlink">
    <!-- Generator: Sketch 58 (84663) - https://sketch.com -->
    <title>我的/消息中心</title>
    <desc>Created with Sketch.</desc>
    <g id="页面-1" stroke="none" stroke-width="1" fill="none" fill-rule="evenodd">
        <g id="我的" transform="translate(-19.000000, -149.000000)">
            <g id="消息中心" transform="translate(12.000000, 134.000000)">
                <g id="我的/消息中心-2" transform="translate(7.000000, 15.000000)">
                    <g id="我的/消息中心">
                        <g id="xiaoxi">
                            <rect id="矩形" fill="#D8D8D8" opacity="0" x="0" y="0" width="26" height="26"></rect>
                            <g id="编组-9" transform="translate(3.617100, 5.782491)" fill="#32BAC0" fill-rule="nonzero">
                                <path d="M16.8599125,0 L1.87331443,0 C0.838697228,0 1.29674049e-13,0.838724758 1.29674049e-13,1.87331443 L1.29674049e-13,12.4888455 C1.29674049e-13,13.5234627 0.838697228,14.36216 1.87331443,14.36216 L16.8599401,14.36216 C17.8945573,14.36216 18.733282,13.5234352 18.733282,12.4888455 L18.733282,1.87331443 C18.733282,0.838724758 17.8945297,0 16.8599125,0 Z M16.8599125,1.21333333 C17.2244335,1.21333333 17.5199487,1.50883953 17.5199487,1.87331443 L17.5199487,12.4888455 C17.5199487,12.8533312 17.2244503,13.1488266 16.8599401,13.1488266 L1.87331443,13.1488266 C1.50880273,13.1488266 1.21333333,12.8533572 1.21333333,12.4888455 L1.21333333,1.87331443 C1.21333333,1.50881799 1.50881499,1.21333333 1.87331443,1.21333333 L16.8599125,1.21333333 Z" id="路径"></path>
                                <path d="M9.37806615,8.60532324 L1.59323307,0.898535488 C1.35512445,0.66281398 0.97100924,0.664749116 0.735287732,0.902857736 C0.499566224,1.14096636 0.501501361,1.52508157 0.73960998,1.76080308 L8.95608833,9.89490872 C9.19439659,10.1308279 9.57890296,10.1286628 9.81453941,9.890075 L17.8480248,1.75596936 C18.0834638,1.51758143 18.0810733,1.13346878 17.8426853,0.898029749 C17.6042974,0.662590716 17.2201847,0.664981271 16.9847457,0.903369203 L9.37806615,8.60532324 Z" id="路径-4"></path>
                            </g>
                        </g>
                    </g>
                </g>
            </g>
        </g>
    </g>
</svg>