<?xml version="1.0" encoding="UTF-8"?>
<svg width="32px" height="32px" viewBox="0 0 32 32" version="1.1" xmlns="http://www.w3.org/2000/svg" xmlns:xlink="http://www.w3.org/1999/xlink">
    <!-- Generator: Sketch 58 (84663) - https://sketch.com -->
    <title>底部导航栏/点击后首页2icon</title>
    <desc>Created with Sketch.</desc>
    <g id="页面-1" stroke="none" stroke-width="1" fill="none" fill-rule="evenodd">
        <g id="首页底部栏icon" transform="translate(-297.000000, -766.000000)">
            <g id="底部导航栏备份-2" transform="translate(0.000000, 763.000000)">
                <g id="编组" transform="translate(46.000000, 3.000000)">
                    <g id="编组-18">
                        <g id="底部导航栏/未点击我的icon" transform="translate(251.000000, 0.000000)">
                            <rect id="矩形" fill="#D8D8D8" opacity="0" x="0" y="0" width="32" height="32"></rect>
                            <g id="编组-13" stroke-width="1" transform="translate(5.333333, 5.333333)" fill="#666666">
                                <path d="M5.81388385,10.2088409 C6.58046592,10.2088409 7.34021897,10.3626364 8.05222004,10.6589174 L8.55268864,10.8817215 C9.18754073,11.1461042 9.86999084,11.284167 10.5734762,11.284167 C11.276717,11.284167 11.9595451,11.1460171 12.5943079,10.881552 L13.0945714,10.6587789 C13.8062274,10.3626426 14.5660093,10.2088409 15.3326067,10.2088409 C18.363435,10.2088409 20.941965,12.5085239 21.1343785,15.4791442 C21.3459611,18.7494178 18.7594755,21.4986909 15.5017371,21.4986909 L5.64526972,21.4986909 C2.38740251,21.4986909 -0.199467709,18.7493727 0.0121153848,15.4790919 C0.204525493,12.5085239 2.78305555,10.2088409 5.81388385,10.2088409 Z M5.81388385,11.6424409 C3.52376109,11.6424409 1.58524428,13.3713229 1.44272091,15.5717028 C1.28469078,18.0142558 3.21434893,20.0650909 5.64526972,20.0650909 L15.5017371,20.0650909 C17.9324858,20.0650909 19.8618055,18.0143443 19.703773,15.5717551 C19.5612462,13.3713229 17.6227294,11.6424409 15.3326067,11.6424409 C14.7651116,11.6424409 14.2010364,11.7548705 13.6703167,11.9720271 L13.1753094,12.1924741 C12.3589527,12.5372592 11.4783699,12.717767 10.5734762,12.717767 C9.66838214,12.717767 8.78829403,12.5373697 7.97185715,12.1927146 L7.47658462,11.9722164 C6.94542961,11.7548672 6.38137011,11.6424409 5.81388385,11.6424409 Z" id="路径" fill-rule="nonzero"></path>
                                <path d="M10.5734558,9.95506087 C13.32247,9.95506087 15.5509862,7.72654459 15.5509862,4.97753043 C15.5509862,2.22851628 13.32247,-7.10542736e-15 10.5734558,-7.10542736e-15 C7.82444165,-7.10542736e-15 5.59592537,2.22851628 5.59592537,4.97753043 C5.59592537,7.72654459 7.82444165,9.95506087 10.5734558,9.95506087 Z M10.5734558,8.52146087 C8.61619707,8.52146087 7.02952537,6.93478917 7.02952537,4.97753043 C7.02952537,3.0202717 8.61619707,1.4336 10.5734558,1.4336 C12.5307145,1.4336 14.1173862,3.0202717 14.1173862,4.97753043 C14.1173862,6.93478917 12.5307145,8.52146087 10.5734558,8.52146087 Z" id="椭圆形" fill-rule="nonzero"></path>
                            </g>
                        </g>
                    </g>
                </g>
            </g>
        </g>
    </g>
</svg>