<?xml version="1.0" encoding="UTF-8"?>
<svg width="32px" height="32px" viewBox="0 0 32 32" version="1.1" xmlns="http://www.w3.org/2000/svg" xmlns:xlink="http://www.w3.org/1999/xlink">
    <!-- Generator: Sketch 58 (84663) - https://sketch.com -->
    <title>底部导航栏/点击后首页2icon</title>
    <desc>Created with Sketch.</desc>
    <g id="页面-1" stroke="none" stroke-width="1" fill="none" fill-rule="evenodd">
        <g id="首页底部栏icon" transform="translate(-46.000000, -766.000000)">
            <g id="底部导航栏备份-2" transform="translate(0.000000, 763.000000)">
                <g id="编组" transform="translate(46.000000, 3.000000)">
                    <g id="编组-18">
                        <g id="底部导航栏/点击首页icon备份">
                            <g id="编组-14">
                                <rect id="矩形" fill="#D8D8D8" opacity="0" x="0" y="0" width="32" height="32"></rect>
                                <g id="编组-13" transform="translate(6.222222, 6.222222)" fill="#666666" fill-rule="nonzero">
                                    <path d="M10.0417444,12.1186892 C10.9161696,12.1680808 11.7448529,12.5372 12.3675745,13.159726 C13.0382809,13.8302217 13.4150975,14.7397355 13.4150975,15.6881086 L13.4150975,19.2863309 C13.4150975,19.8950714 12.9216158,20.3885531 12.3128753,20.3885531 L7.36443088,20.3885531 C6.75569036,20.3885531 6.26220866,19.8950714 6.26220866,19.2863309 L6.26220866,15.6881086 C6.26220866,14.7395407 6.63917943,13.8298566 7.3101288,13.1593287 C7.93307616,12.5367726 8.76202448,12.1677647 9.63664228,12.1186278 L9.83921487,12.1129969 L10.0417444,12.1186892 Z M11.9217642,15.6881086 C11.9217642,15.1358734 11.7023449,14.6062659 11.3117943,14.2158381 C10.9212438,13.8254102 10.3915672,13.6061571 9.83933164,13.6063301 L9.6737159,13.6127636 C9.18170249,13.6515314 8.717366,13.8642045 8.36574313,14.2156065 C7.9750511,14.6060531 7.75554199,15.1357598 7.75554199,15.6881086 L7.75554199,18.8952197 L11.9217642,18.8952197 L11.9217642,15.6881086 Z" id="路径"></path>
                                    <path d="M9.83931478,-0.746666667 C11.1216461,-0.746666667 12.3708628,-0.313996359 13.3859146,0.500677625 L18.3056502,4.44929182 C19.6457156,5.52520541 20.4253369,7.15050618 20.4253369,8.86832682 L20.4253369,14.7170139 C20.4253369,17.835137 17.8771679,20.3832769 14.7589789,20.3832769 L4.91966417,20.3832769 C1.80148828,20.3832769 -0.746666667,17.8351365 -0.746666667,14.7170139 L-0.746666667,8.86832682 C-0.746666667,7.15048495 0.032930703,5.52519031 1.37311355,4.44919497 L6.29275902,0.500642266 C7.30776325,-0.313993514 8.55699216,-0.746666667 9.83931478,-0.746666667 Z M9.83931478,0.746666667 C8.8944325,0.746666667 7.97542537,1.06496679 7.22752367,1.66522781 L2.307912,5.61375338 C1.32083729,6.40624808 0.746666667,7.60327166 0.746666667,8.86832682 L0.746666667,14.7170139 C0.746666667,17.0103894 2.6262316,18.8899436 4.91966417,18.8899436 L14.7589789,18.8899436 C17.0524265,18.8899436 18.9320036,17.0103879 18.9320036,14.7170139 L18.9320036,8.86832682 C18.9320036,7.60329724 18.357812,6.4062623 17.3708485,5.61384756 L12.451152,1.66526485 C11.7032002,1.0649636 10.7842053,0.746666667 9.83931478,0.746666667 Z" id="路径"></path>
                                </g>
                            </g>
                        </g>
                    </g>
                </g>
            </g>
        </g>
    </g>
</svg>