<?xml version="1.0" encoding="UTF-8"?>
<svg width="32px" height="32px" viewBox="0 0 32 32" version="1.1" xmlns="http://www.w3.org/2000/svg" xmlns:xlink="http://www.w3.org/1999/xlink">
    <!-- Generator: Sketch 58 (84663) - https://sketch.com -->
    <title>底部导航栏/未点击商城icon</title>
    <desc>Created with Sketch.</desc>
    <g id="页面-1" stroke="none" stroke-width="1" fill="none" fill-rule="evenodd">
        <g id="首页底部栏icon" transform="translate(-172.000000, -667.000000)">
            <g id="底部导航栏备份-2" transform="translate(0.000000, 664.000000)">
                <g id="编组" transform="translate(46.000000, 3.000000)">
                    <g id="编组-18">
                        <g id="底部导航栏/未点击商城icon" transform="translate(126.000000, 0.000000)">
                            <g>
                                <rect id="矩形" fill="#D8D8D8" opacity="0" x="0" y="0" width="32" height="32"></rect>
                                <g id="编组-13" transform="translate(6.234712, 4.444444)" fill="#666666" fill-rule="nonzero">
                                    <path d="M16.0463531,22.8994909 L3.44921609,22.8994909 C1.54966343,22.8994909 0,21.3498275 0,19.4502748 L0,9.15260736 C0,7.25303127 1.54966343,5.70339127 3.44921609,5.70339127 L16.0463531,5.70339127 C17.9459292,5.70339127 19.4955692,7.25303127 19.4955692,9.15260736 L19.4955692,19.4502748 C19.4955692,21.3498275 17.9459292,22.8994909 16.0463531,22.8994909 Z M16.0463531,21.4061575 C17.1211743,21.4061575 18.0022359,20.5250919 18.0022359,19.4502748 L18.0022359,9.15260736 C18.0022359,8.0777765 17.121184,7.19672461 16.0463531,7.19672461 L3.44921609,7.19672461 C2.374399,7.19672461 1.49333333,8.07778615 1.49333333,9.15260736 L1.49333333,19.4502748 C1.49333333,20.5250822 2.37440866,21.4061575 3.44921609,21.4061575 L16.0463531,21.4061575 Z" id="路径"></path>
                                    <path d="M9.76528843,0.142222222 C12.6322599,0.142222222 14.9563995,2.46636183 14.9563995,5.33333333 L14.9563995,7.18266546 L4.57417732,7.18266546 L4.57417732,5.33333333 C4.57417732,2.46636183 6.89831693,0.142222222 9.76528843,0.142222222 Z M13.4630662,5.33333333 C13.4630662,3.29110706 11.8075147,1.63555556 9.76528843,1.63555556 C7.72306215,1.63555556 6.06751065,3.29110706 6.06751065,5.33333333 L6.06751065,5.68933212 L13.4630662,5.68933212 L13.4630662,5.33333333 Z" id="矩形"></path>
                                    <path d="M12.8062229,14.3653591 L12.8062229,13.953989 C12.8062229,12.462485 11.4495113,11.2692818 9.76529939,11.2692818 C8.08108748,11.2692818 6.72435391,12.462485 6.72435391,13.953989 L6.72435391,14.3653591 C6.72435391,14.7631013 6.39687557,15.1111111 6.02259895,15.1111111 C5.64832232,15.1111111 5.32084398,14.7631013 5.32084398,14.3653591 L5.32084398,13.953989 C5.32084398,11.6670239 7.33253424,9.77777778 9.76529939,9.77777778 C12.1980646,9.77777778 14.2097329,11.6172916 14.2097329,13.953989 L14.2097329,14.3653591 C14.2097329,14.7631013 13.8822545,15.1111111 13.5079779,15.1111111 C13.1337232,15.1111111 12.8062229,14.7631013 12.8062229,14.3653591 Z" id="路径备份" transform="translate(9.765288, 12.444444) scale(1, -1) translate(-9.765288, -12.444444) "></path>
                                </g>
                            </g>
                        </g>
                    </g>
                </g>
            </g>
        </g>
    </g>
</svg>