<?xml version="1.0" encoding="UTF-8"?>
<svg width="46px" height="46px" viewBox="0 0 46 46" version="1.1" xmlns="http://www.w3.org/2000/svg" xmlns:xlink="http://www.w3.org/1999/xlink">
    <!-- Generator: Sketch 58 (84663) - https://sketch.com -->
    <title>卫生间</title>
    <desc>Created with Sketch.</desc>
    <g id="页面-1" stroke="none" stroke-width="1" fill="none" fill-rule="evenodd">
        <g id="添加房间" transform="translate(-302.000000, -165.000000)">
            <g id="组件备份" transform="translate(12.000000, 150.000000)">
                <g id="卫生间" transform="translate(275.000000, 0.000000)">
                    <g id="客厅">
                        <g id="编组" transform="translate(15.000000, 15.000000)">
                            <g id="公共/添加房间/卫生间">
                                <g id="编组-9">
                                    <rect id="矩形" fill="#D8D8D8" opacity="0" x="0" y="0" width="46" height="46"></rect>
                                    <path d="M14.0899225,7.66666667 L31.501193,7.66666667 C32.9125874,7.66666667 34.0567486,8.81082786 34.0567486,10.2222222 C34.0567486,10.2982341 34.0533572,10.3742082 34.0465847,10.4499178 L33.150853,20.4632356 C33.0329621,21.7811294 31.9286175,22.7910956 30.6054613,22.7910956 L14.9856542,22.7910956 C13.6624979,22.7910956 12.5581534,21.7811294 12.4402624,20.4632356 L11.5445308,10.4499178 C11.418778,9.04413676 12.4564459,7.8025833 13.8622269,7.67683052 C13.9379365,7.67005799 14.0139106,7.66666667 14.0899225,7.66666667 Z M31.501193,9.81333333 L14.0899225,9.81333333 L14.0534912,9.81495955 C13.8285662,9.83507999 13.6625394,10.0337285 13.6826598,10.2586535 L14.5783915,20.2719714 C14.597254,20.4828344 14.7739492,20.644429 14.9856542,20.644429 L30.6054613,20.644429 C30.8171663,20.644429 30.9938614,20.4828344 31.012724,20.2719714 L31.9100819,10.2222222 C31.9100819,9.99639912 31.7270161,9.81333333 31.501193,9.81333333 Z" id="矩形" fill="#666666" fill-rule="nonzero"></path>
                                    <rect id="矩形" fill="#666666" x="12.5733355" y="11.5" width="20.4444444" height="2.14666667"></rect>
                                    <path d="M35.5733355,20.6488889 C36.1661211,20.6488889 36.6466688,21.1294366 36.6466688,21.7222222 C36.6466688,27.0384468 33.6236912,31.8007631 28.9804561,34.1190933 L28.9800022,38.333449 C28.9799383,38.9261894 28.4994093,39.4066667 27.9066688,39.4066667 L17.6844466,39.4066667 C17.0915964,39.4066667 16.6110219,38.9260181 16.6111133,38.3331678 L16.611763,34.119621 C12.0873679,31.8608013 9.09169516,27.2736807 8.94945668,22.0946089 L8.94444444,21.7369527 C8.93633321,21.1384625 9.41923332,20.6488889 10.01778,20.6488889 L35.5733355,20.6488889 Z M35.5733355,20.6488889 L35.5733355,22.7955556 L10.01778,22.7955556 L10.01778,20.6488889 L35.5733355,20.6488889 Z M10.01778,22.7955556 L10.01778,21.7222222 L11.0910122,21.7074917 L11.0956171,22.0503913 C11.2211477,26.6179919 13.9888811,30.6511245 18.1148699,32.4535271 C18.5058966,32.6243437 18.7586006,33.0105641 18.7585349,33.4372725 L18.7579455,37.26 L26.8334511,37.26 L26.833863,33.4364311 C26.833909,33.0098676 27.0865446,32.6238158 27.4774196,32.4530142 C31.7078746,30.6044214 34.5000022,26.4193954 34.5000022,21.7222222 L35.5733355,22.7955556 L10.01778,22.7955556 Z" id="形状结合" fill="#666666" fill-rule="nonzero"></path>
                                    <rect id="矩形" fill="#666666" x="11.2955577" y="25.5555556" width="23" height="2.14666667"></rect>
                                </g>
                            </g>
                        </g>
                    </g>
                </g>
            </g>
        </g>
    </g>
</svg>