<?xml version="1.0" encoding="UTF-8"?>
<svg width="32px" height="32px" viewBox="0 0 32 32" version="1.1" xmlns="http://www.w3.org/2000/svg" xmlns:xlink="http://www.w3.org/1999/xlink">
    <!-- Generator: Sketch 58 (84663) - https://sketch.com -->
    <title>公共/Wi-Fi icon</title>
    <desc>Created with Sketch.</desc>
    <g id="页面-1" stroke="none" stroke-width="1" fill="none" fill-rule="evenodd">
        <g id="添加设备-配置向导-链接WLAN" transform="translate(-336.000000, -140.000000)">
            <g id="编组-3" transform="translate(336.000000, 140.000000)">
                <g id="公共/wifi-icon">
                    <g id="wifi">
                        <rect id="矩形" fill="#D8D8D8" opacity="0" x="0" y="0" width="32" height="32"></rect>
                        <path d="M14.1868184,23.8982874 C14.1868184,24.9138929 15.0101293,25.7372037 16.0257347,25.7372037 C17.0413402,25.7372037 17.864651,24.9138929 17.864651,23.8982874 C17.864651,22.882682 17.0413402,22.0593711 16.0257347,22.0593711 C15.0101293,22.0593711 14.1868184,22.882682 14.1868184,23.8982874 L14.1868184,23.8982874 Z" id="路径" fill="#666666" fill-rule="nonzero"></path>
                        <path d="M19.3705457,20.4335448 C19.2240087,20.4335448 19.0807689,20.3900407 18.9589787,20.308553 C17.2420866,19.1707718 15.0221039,19.1284717 13.2631146,20.2000224 C12.9127087,20.414428 12.4548386,20.304178 12.240433,19.9537722 C12.0260274,19.6033663 12.1362774,19.1454962 12.4866833,18.9310906 C14.7401987,17.5580716 17.584502,17.612372 19.7839702,19.0704024 C20.0583553,19.251464 20.181139,19.5913139 20.0858391,19.9059381 C19.9905393,20.2205624 19.6998131,20.43516 19.3710764,20.4335448 L19.3705457,20.4335448 Z M9.50939021,16.2889512 C9.18206697,16.2905621 8.89224309,16.0777833 8.79574046,15.7650049 C8.69923783,15.4522264 8.81879299,15.1131405 9.0901279,14.9300545 C13.2391584,12.1147719 18.6784198,12.0869869 22.8559953,14.8597352 C23.1979744,15.0874038 23.2906414,15.5491944 23.0629728,15.8911735 C22.8353043,16.2331526 22.3735136,16.3258197 22.0315345,16.0981511 C18.3988124,13.6781054 13.5353697,13.7033143 9.92652966,16.1599791 C9.80360908,16.2439231 9.65823936,16.2888657 9.50939021,16.2889512 Z M6.08046143,11.6547781 C5.75297736,11.6565625 5.46293616,11.443731 5.36640306,11.1307927 C5.26986996,10.8178543 5.38961228,10.4786156 5.66119915,10.2956139 C8.69368622,8.23087979 12.2460055,7.12965286 15.9344523,7.1113433 C19.6228991,7.09303374 23.1813216,8.15790692 26.2326489,10.1894716 C26.4538232,10.3367473 26.5796261,10.5908308 26.5626687,10.8560112 C26.5457113,11.1211916 26.38857,11.3571818 26.1504383,11.4750865 C25.9123066,11.5929912 25.6293625,11.5748979 25.4081882,11.4276222 C19.7330218,7.64868897 12.1337599,7.68796164 6.49839695,11.5255385 C6.3752826,11.6097296 6.22960995,11.6547781 6.08046143,11.6547781 Z" id="形状" fill="#666666" fill-rule="nonzero"></path>
                    </g>
                </g>
            </g>
        </g>
    </g>
</svg>