<?xml version="1.0" encoding="UTF-8"?>
<svg width="46px" height="46px" viewBox="0 0 46 46" version="1.1" xmlns="http://www.w3.org/2000/svg" xmlns:xlink="http://www.w3.org/1999/xlink">
    <!-- Generator: Sketch 58 (84663) - https://sketch.com -->
    <title>卧室</title>
    <desc>Created with Sketch.</desc>
    <g id="页面-1" stroke="none" stroke-width="1" fill="none" fill-rule="evenodd">
        <g id="添加房间" transform="translate(-119.000000, -165.000000)">
            <g id="组件备份" transform="translate(12.000000, 150.000000)">
                <g id="卧室" transform="translate(92.000000, 0.000000)">
                    <g id="客厅">
                        <g id="编组" transform="translate(15.000000, 15.000000)">
                            <g id="公共/添加房间/卧室">
                                <g id="编组-9">
                                    <g id="编组-10">
                                        <rect id="矩形" fill="#D8D8D8" opacity="0" x="0" y="0" width="46" height="46"></rect>
                                        <path d="M10.2222222,8.94444444 L35.7777778,8.94444444 C37.1891721,8.94444444 38.3333333,10.0886056 38.3333333,11.5 L38.3333333,28.1111111 C38.3333333,29.5225055 37.1891721,30.6666667 35.7777778,30.6666667 L10.2222222,30.6666667 C8.81082786,30.6666667 7.66666667,29.5225055 7.66666667,28.1111111 L7.66666667,11.5 C7.66666667,10.0886056 8.81082786,8.94444444 10.2222222,8.94444444 Z M10.2222222,11.0911111 C9.99639912,11.0911111 9.81333333,11.2741769 9.81333333,11.5 L9.81333333,28.1111111 C9.81333333,28.3369342 9.99639912,28.52 10.2222222,28.52 L35.7777778,28.52 C36.0036009,28.52 36.1866667,28.3369342 36.1866667,28.1111111 L36.1866667,11.5 C36.1866667,11.2741769 36.0036009,11.0911111 35.7777778,11.0911111 L10.2222222,11.0911111 Z" id="矩形" fill="#666666" fill-rule="nonzero"></path>
                                        <path d="M15.3333333,19.1666667 L30.6666667,19.1666667 C34.9008497,19.1666667 38.3333333,22.5991503 38.3333333,26.8333333 L38.3333333,30.6666667 L7.66666667,30.6666667 L7.66666667,26.8333333 C7.66666667,22.5991503 11.0991503,19.1666667 15.3333333,19.1666667 Z M36.1866667,26.8333333 C36.1866667,23.7847215 33.7152785,21.3133333 30.6666667,21.3133333 L15.3333333,21.3133333 C12.2847215,21.3133333 9.81333333,23.7847215 9.81333333,26.8333333 L9.81333333,28.52 L36.1866667,28.52 L36.1866667,26.8333333 Z" id="矩形" fill="#666666" fill-rule="nonzero"></path>
                                        <path d="M15.3333333,16.2022222 L21.7222222,16.2022222 C22.4279194,16.2022222 23,16.7743028 23,17.48 L23,20.0355556 C23,20.7412527 22.4279194,21.3133333 21.7222222,21.3133333 L15.3333333,21.3133333 C14.6276362,21.3133333 14.0555556,20.7412527 14.0555556,20.0355556 L14.0555556,17.48 C14.0555556,16.7743028 14.6276362,16.2022222 15.3333333,16.2022222 Z M16.2022222,19.1666667 L20.8533333,19.1666667 L20.8533333,18.3488889 L16.2022222,18.3488889 L16.2022222,19.1666667 Z" id="矩形" fill="#666666" fill-rule="nonzero"></path>
                                        <path d="M24.2777778,16.2022222 L30.6666667,16.2022222 C31.3723638,16.2022222 31.9444444,16.7743028 31.9444444,17.48 L31.9444444,20.0355556 C31.9444444,20.7412527 31.3723638,21.3133333 30.6666667,21.3133333 L24.2777778,21.3133333 C23.5720806,21.3133333 23,20.7412527 23,20.0355556 L23,17.48 C23,16.7743028 23.5720806,16.2022222 24.2777778,16.2022222 Z M25.1466667,19.1666667 L29.7977778,19.1666667 L29.7977778,18.3488889 L25.1466667,18.3488889 L25.1466667,19.1666667 Z" id="矩形备份-7" fill="#666666" fill-rule="nonzero"></path>
                                        <path d="M6.38888889,28.5455556 L39.6111111,28.5455556 C40.3168083,28.5455556 40.8888889,29.1176362 40.8888889,29.8233333 L40.8888889,33.6566667 C40.8888889,34.3623638 40.3168083,34.9344444 39.6111111,34.9344444 L6.38888889,34.9344444 C5.68319171,34.9344444 5.11111111,34.3623638 5.11111111,33.6566667 L5.11111111,29.8233333 C5.11111111,29.1176362 5.68319171,28.5455556 6.38888889,28.5455556 Z M7.25777778,30.6922222 L7.25777778,32.7877778 L38.7422222,32.7877778 L38.7422222,30.6922222 L7.25777778,30.6922222 Z" id="矩形" fill="#666666" fill-rule="nonzero"></path>
                                        <rect id="矩形" fill="#666666" x="10.2222222" y="33.2222222" width="2.14666667" height="3.83333333" rx="0.84"></rect>
                                        <rect id="矩形备份-8" fill="#666666" x="33.6311111" y="33.2222222" width="2.14666667" height="3.83333333" rx="0.84"></rect>
                                    </g>
                                </g>
                            </g>
                        </g>
                    </g>
                </g>
            </g>
        </g>
    </g>
</svg>