<?xml version="1.0" encoding="UTF-8"?>
<svg width="22px" height="22px" viewBox="0 0 22 22" version="1.1" xmlns="http://www.w3.org/2000/svg" xmlns:xlink="http://www.w3.org/1999/xlink">
    <!-- Generator: Sketch 58 (84663) - https://sketch.com -->
    <title>公共/取消icon</title>
    <desc>Created with Sketch.</desc>
    <g id="页面-1" stroke="none" stroke-width="1" fill="none" fill-rule="evenodd">
        <g id="添加房间-客厅名字修改" transform="translate(-295.000000, -317.000000)">
            <g id="弹窗">
                <g id="编组-2">
                    <g id="编组-3" transform="translate(36.000000, 258.000000)">
                        <g id="编组-4" transform="translate(259.000000, 59.000000)">
                            <g id="公共/取消icon">
                                <g id="首页/手动添加icon">
                                    <g id="编组-9">
                                        <rect id="矩形" fill="#D8D8D8" opacity="0" x="0" y="0" width="22" height="22"></rect>
                                        <path d="M11,18.9444444 C15.3875955,18.9444444 18.9444444,15.3875955 18.9444444,11 C18.9444444,6.61240449 15.3875955,3.05555556 11,3.05555556 C6.61240449,3.05555556 3.05555556,6.61240449 3.05555556,11 C3.05555556,15.3875955 6.61240449,18.9444444 11,18.9444444 Z M11,17.9177778 C7.17941683,17.9177778 4.08222222,14.8205832 4.08222222,11 C4.08222222,7.17941683 7.17941683,4.08222222 11,4.08222222 C14.8205832,4.08222222 17.9177778,7.17941683 17.9177778,11 C17.9177778,14.8205832 14.8205832,17.9177778 11,17.9177778 Z" id="椭圆形" fill="#979797" fill-rule="nonzero"></path>
                                        <g id="编组" transform="translate(7.333333, 7.333333)" fill="#999999">
                                            <path d="M-0.0282051282,3.10444444 L7.26376068,3.10444444 C7.61269136,3.10444444 7.89555556,3.33427161 7.89555556,3.61777778 C7.89555556,3.90128395 7.61269136,4.13111111 7.26376068,4.13111111 L-0.0282051282,4.13111111 C-0.377135801,4.13111111 -0.66,3.90128395 -0.66,3.61777778 C-0.66,3.33427161 -0.377135801,3.10444444 -0.0282051282,3.10444444 Z" id="矩形" transform="translate(3.617778, 3.617778) rotate(-315.000000) translate(-3.617778, -3.617778) "></path>
                                            <path d="M3.05555556,7.31264957 L3.05555556,0.0206837607 C3.05555556,-0.328246912 3.28538272,-0.611111111 3.56888889,-0.611111111 C3.85239506,-0.611111111 4.08222222,-0.328246912 4.08222222,0.0206837607 L4.08222222,7.31264957 C4.08222222,7.66158025 3.85239506,7.94444444 3.56888889,7.94444444 C3.28538272,7.94444444 3.05555556,7.66158025 3.05555556,7.31264957 Z" id="矩形备份-6" transform="translate(3.568889, 3.666667) rotate(-315.000000) translate(-3.568889, -3.666667) "></path>
                                        </g>
                                    </g>
                                </g>
                            </g>
                        </g>
                    </g>
                </g>
            </g>
        </g>
    </g>
</svg>