<?xml version="1.0" encoding="UTF-8"?>
<svg width="26px" height="27px" viewBox="0 0 26 27" version="1.1" xmlns="http://www.w3.org/2000/svg" xmlns:xlink="http://www.w3.org/1999/xlink">
    <!-- Generator: Sketch 58 (84663) - https://sketch.com -->
    <title>公共/显示</title>
    <desc>Created with Sketch.</desc>
    <g id="页面-1" stroke="none" stroke-width="1" fill="none" fill-rule="evenodd">
        <g id="添加设备-配置向导-链接wifi状态2" transform="translate(-337.000000, -446.000000)">
            <g id="编组" transform="translate(12.000000, 429.500000)">
                <g id="编组-3" transform="translate(325.000000, 17.000000)">
                    <g id="公共/显示icon">
                        <g id="yanjing">
                            <rect id="矩形" fill="#D8D8D8" opacity="0" x="0" y="0" width="26" height="26"></rect>
                            <path d="M12.9981919,8.40652176 C16.2576557,8.40652176 19.0632428,10.3183204 20.3761882,13.0776273 L21.6556064,13.0776273 C20.268932,9.65547122 16.9180812,7.23918778 12.9981726,7.23918778 C9.07889885,7.23918778 5.72804806,9.65547122 4.34139293,13.0776273 L5.62083037,13.0776273 C6.93373728,10.3183204 9.7393244,8.40650253 12.9981919,8.40650253 L12.9981919,8.40652176 Z" id="路径" fill="#666666" fill-rule="nonzero"></path>
                            <path d="M12.9981919,17.7487137 C9.73934363,17.7487137 6.93373728,15.836915 5.62083037,13.0776081 L4.34139293,13.0776081 C5.72802882,16.5003798 9.07887962,18.916644 12.9981919,18.916644 C16.9180812,18.916644 20.2689512,16.5003605 21.6556064,13.0776081 L20.3761689,13.0776081 C19.0632235,15.836915 16.2576557,17.7487137 12.9981726,17.7487137 L12.9981919,17.7487137 Z" id="路径" fill="#666666" fill-rule="nonzero"></path>
                            <path d="M9.88453184,13.0779159 C9.88453184,14.7977845 11.2785926,16.1918452 12.9984419,16.1918452 C14.718349,16.1918452 16.1123713,14.7977845 16.1123713,13.0779159 C16.1123713,11.3580088 14.718349,9.96398655 12.9984419,9.96398655 C11.2785733,9.96398655 9.88453184,11.3580088 9.88453184,13.0779159 Z M14.9450373,13.0779159 C14.9450373,14.1527857 14.0732925,15.0244728 12.9984419,15.0244728 C11.9235914,15.0244728 11.0524814,14.1527664 11.0524814,13.0779159 C11.0524814,12.0030461 11.9235914,11.1313013 12.9984419,11.1313013 C14.0732925,11.1313013 14.9450373,12.0030461 14.9450373,13.0779159 Z" id="形状" fill="#666666" fill-rule="nonzero"></path>
                        </g>
                    </g>
                </g>
            </g>
        </g>
    </g>
</svg>