<?xml version="1.0" encoding="UTF-8"?>
<svg width="46px" height="46px" viewBox="0 0 46 46" version="1.1" xmlns="http://www.w3.org/2000/svg" xmlns:xlink="http://www.w3.org/1999/xlink">
    <!-- Generator: Sketch 58 (84663) - https://sketch.com -->
    <title>阳台</title>
    <desc>Created with Sketch.</desc>
    <g id="页面-1" stroke="none" stroke-width="1" fill="none" fill-rule="evenodd">
        <g id="添加房间" transform="translate(-302.000000, -405.000000)">
            <g id="组件备份" transform="translate(12.000000, 150.000000)">
                <g id="阳台" transform="translate(275.000000, 240.000000)">
                    <g id="客厅">
                        <g id="编组" transform="translate(15.000000, 15.000000)">
                            <g id="公共/添加房间/阳台">
                                <g id="编组-9">
                                    <rect id="矩形" fill="#D8D8D8" opacity="0" x="0" y="0" width="46" height="46"></rect>
                                    <path d="M12.1388889,7.46222222 L33.8611111,7.46222222 C35.2725055,7.46222222 36.4166667,8.60638342 36.4166667,10.0177778 L36.4166667,27.9066667 L9.58333333,27.9066667 L9.58333333,10.0177778 C9.58333333,8.60638342 10.7274945,7.46222222 12.1388889,7.46222222 Z M34.27,25.76 L34.27,10.0177778 C34.27,9.79195468 34.0869342,9.60888889 33.8611111,9.60888889 L12.1388889,9.60888889 C11.9130658,9.60888889 11.73,9.79195468 11.73,10.0177778 L11.73,25.76 L34.27,25.76 Z" id="矩形" fill="#666666" fill-rule="nonzero"></path>
                                    <polygon id="矩形备份-7" fill="#666666" transform="translate(22.840278, 22.258889) rotate(-90.000000) translate(-22.840278, -22.258889) " points="8.04361111 21.1855556 37.6369444 21.1855556 37.6369444 23.3322222 8.04361111 23.3322222"></polygon>
                                    <rect id="矩形" fill="#666666" x="7.66666667" y="26.8333333" width="2.14666667" height="10.2222222"></rect>
                                    <rect id="矩形备份-8" fill="#666666" x="14.0555556" y="26.8333333" width="2.14666667" height="10.2222222"></rect>
                                    <rect id="矩形备份-9" fill="#666666" x="35.7777778" y="26.8333333" width="2.14666667" height="10.2222222"></rect>
                                    <rect id="矩形备份-10" fill="#666666" x="29.3888889" y="26.8333333" width="2.14666667" height="10.2222222"></rect>
                                    <path d="M7.66666667,27.9066667 L38.3333333,27.9066667 C38.926119,27.9066667 39.4066667,27.426119 39.4066667,26.8333333 C39.4066667,26.2405477 38.926119,25.76 38.3333333,25.76 L7.66666667,25.76 C7.07388104,25.76 6.59333333,26.2405477 6.59333333,26.8333333 C6.59333333,27.426119 7.07388104,27.9066667 7.66666667,27.9066667 Z" id="路径-2" fill="#666666" fill-rule="nonzero"></path>
                                    <path d="M7.66666667,38.1288889 L38.3333333,38.1288889 C38.926119,38.1288889 39.4066667,37.6483412 39.4066667,37.0555556 C39.4066667,36.4627699 38.926119,35.9822222 38.3333333,35.9822222 L7.66666667,35.9822222 C7.07388104,35.9822222 6.59333333,36.4627699 6.59333333,37.0555556 C6.59333333,37.6483412 7.07388104,38.1288889 7.66666667,38.1288889 Z" id="路径-2备份" fill="#666666" fill-rule="nonzero"></path>
                                </g>
                            </g>
                        </g>
                    </g>
                </g>
            </g>
        </g>
    </g>
</svg>