<?xml version="1.0" encoding="UTF-8"?>
<svg width="36px" height="36px" viewBox="0 0 36 36" version="1.1" xmlns="http://www.w3.org/2000/svg" xmlns:xlink="http://www.w3.org/1999/xlink">
    <!-- Generator: Sketch 58 (84663) - https://sketch.com -->
    <title>注册登陆/验证码icon</title>
    <desc>Created with Sketch.</desc>
    <g id="页面-1" stroke="none" stroke-width="1" fill="none" fill-rule="evenodd">
        <g id="注册/登陆页2" transform="translate(-21.000000, -306.000000)">
            <g id="编组" transform="translate(12.000000, 294.000000)">
                <g id="编组-2" transform="translate(9.000000, 12.000000)">
                    <g id="编组-7">
                        <g id="注册登陆/验证码icon">
                            <g id="yanzhengma">
                                <rect id="矩形" fill="#D8D8D8" opacity="0" x="0" y="0" width="36" height="36"></rect>
                                <path d="M17.9556084,5.01442649 C17.7820261,5.01442649 17.6084437,5.04616477 17.4433982,5.10964134 L7.94189776,8.79993786 C7.41545944,9.00479403 7.0455298,9.50106534 7.02561051,10.0723544 L7.02561051,10.1271751 L7.42399627,18.0040394 C7.42399627,21.1288175 8.98623758,24.3863192 11.43631,26.5878018 C11.9115273,27.014826 17.3893315,30.7541726 17.3893315,30.7541726 C17.5600683,30.8724698 17.7592612,30.9301758 17.9556084,30.9301758 C18.1126863,30.9301758 18.2697641,30.893244 18.4137293,30.8193803 L18.5190397,30.7570579 C18.5190397,30.7570579 23.7891142,27.208141 24.5318191,26.5878018 C26.8737583,24.6315696 28.6551118,21.1317028 28.6551118,18.0069247 L28.8827608,10.1300604 L28.8827608,10.0752397 C28.8599959,9.50395064 28.4929118,9.00767933 27.9664735,8.80282315 L18.4678187,5.10964134 C18.3027732,5.04616477 18.1291908,5.01442649 17.9556084,5.01442649 Z M17.9555718,6.71298077 L27.1976482,10.3064138 L26.9758129,17.9583914 C26.9751118,20.5504839 25.4821895,23.6049618 23.4548102,25.2984409 L23.2842462,25.4309491 C23.0057155,25.6395072 22.4768731,26.0143567 21.7701904,26.5050301 L20.6186698,27.2990981 L19.0632802,28.3601862 L17.9588194,29.108378 L15.2877408,27.2701833 C13.7906431,26.2331179 12.6721361,25.4396776 12.559195,25.3381902 C10.4299284,23.4249638 9.10399627,20.6084676 9.10399627,18.0040394 L8.71649734,10.3013531 L17.9555718,6.71298077 Z" id="路径" fill="#999999" fill-rule="nonzero"></path>
                                <g id="编组-11" transform="translate(12.000000, 12.500000)" fill="#999999">
                                    <rect id="矩形" x="0" y="3.44169138e-15" width="12" height="1.68" rx="0.84"></rect>
                                    <rect id="矩形备份-7" transform="translate(6.000000, 5.840000) rotate(-90.000000) translate(-6.000000, -5.840000) " x="1" y="5" width="10" height="1.68" rx="0.84"></rect>
                                </g>
                            </g>
                        </g>
                    </g>
                </g>
            </g>
        </g>
    </g>
</svg>