<?xml version="1.0" encoding="UTF-8"?>
<svg width="46px" height="46px" viewBox="0 0 46 46" version="1.1" xmlns="http://www.w3.org/2000/svg" xmlns:xlink="http://www.w3.org/1999/xlink">
    <!-- Generator: Sketch 58 (84663) - https://sketch.com -->
    <title>婴儿房</title>
    <desc>Created with Sketch.</desc>
    <g id="页面-1" stroke="none" stroke-width="1" fill="none" fill-rule="evenodd">
        <g id="添加房间" transform="translate(-302.000000, -285.000000)">
            <g id="组件备份" transform="translate(12.000000, 150.000000)">
                <g id="婴儿房" transform="translate(275.000000, 120.000000)">
                    <g id="客厅">
                        <g id="编组" transform="translate(15.000000, 15.000000)">
                            <g id="公共/添加房间/婴儿房">
                                <g id="编组-9">
                                    <rect id="矩形" fill="#D8D8D8" opacity="0" x="0" y="0" width="46" height="46"></rect>
                                    <path d="M11.1138272,39.2173663 C13.0437783,39.2173663 14.6083128,37.6528318 14.6083128,35.7228807 C14.6083128,33.7929296 13.0437783,32.2283951 11.1138272,32.2283951 C9.18387606,32.2283951 7.61934156,33.7929296 7.61934156,35.7228807 C7.61934156,37.6528318 9.18387606,39.2173663 11.1138272,39.2173663 Z M11.1138272,37.1502058 C10.3255373,37.1502058 9.68650206,36.5111705 9.68650206,35.7228807 C9.68650206,34.9345908 10.3255373,34.2955556 11.1138272,34.2955556 C11.902117,34.2955556 12.5411523,34.9345908 12.5411523,35.7228807 C12.5411523,36.5111705 11.902117,37.1502058 11.1138272,37.1502058 Z" id="椭圆形" fill="#666666" fill-rule="nonzero"></path>
                                    <path d="M28.3401646,39.2173663 C30.2701157,39.2173663 31.8346502,37.6528318 31.8346502,35.7228807 C31.8346502,33.7929296 30.2701157,32.2283951 28.3401646,32.2283951 C26.4102135,32.2283951 24.845679,33.7929296 24.845679,35.7228807 C24.845679,37.6528318 26.4102135,39.2173663 28.3401646,39.2173663 Z M28.3401646,37.1502058 C27.5518747,37.1502058 26.9128395,36.5111705 26.9128395,35.7228807 C26.9128395,34.9345908 27.5518747,34.2955556 28.3401646,34.2955556 C29.1284545,34.2955556 29.7674897,34.9345908 29.7674897,35.7228807 C29.7674897,36.5111705 29.1284545,37.1502058 28.3401646,37.1502058 Z" id="椭圆形备份" fill="#666666" fill-rule="nonzero"></path>
                                    <path d="M35.3076586,12.6826325 L38.0807197,12.6826325 C38.6515503,12.6826325 39.1143,12.2198829 39.1143,11.6490523 C39.1143,11.0782216 38.6515503,10.615472 38.0807197,10.615472 L34.5469801,10.615472 C34.0945245,10.615472 33.6946619,10.9097567 33.5601394,11.3417518 L31.0446819,19.4196954 C31.0137004,19.5191871 30.9979424,19.622792 30.9979424,19.7269959 C30.9979424,25.9517678 25.9517678,30.9979424 19.7269959,30.9979424 C13.502224,30.9979424 8.45604938,25.9517678 8.45604938,19.7269959 C8.45604938,13.502224 13.502224,8.45604938 19.7269959,8.45604938 C20.2978265,8.45604938 20.7605761,7.99329974 20.7605761,7.42246914 C20.7605761,6.85163853 20.2978265,6.38888889 19.7269959,6.38888889 C12.3605628,6.38888889 6.38888889,12.3605628 6.38888889,19.7269959 C6.38888889,27.093429 12.3605628,33.0651029 19.7269959,33.0651029 C26.9219934,33.0651029 32.7863956,27.3681466 33.0554576,20.2389785 L33.0641602,19.8872278 L35.3076586,12.6826325 Z" id="路径" fill="#666666" fill-rule="nonzero"></path>
                                    <rect id="矩形" fill="#666666" x="7.42246914" y="19.7269959" width="24.6090535" height="2.06716049"></rect>
                                    <polygon id="路径-2" fill="#666666" fill-rule="nonzero" points="15.1387156 9.25178646 21.9024394 21.2675762 23.7038157 20.2535761 16.9400919 8.2377864"></polygon>
                                </g>
                            </g>
                        </g>
                    </g>
                </g>
            </g>
        </g>
    </g>
</svg>