<?xml version="1.0" encoding="UTF-8"?>
<svg width="26px" height="27px" viewBox="0 0 26 27" version="1.1" xmlns="http://www.w3.org/2000/svg" xmlns:xlink="http://www.w3.org/1999/xlink">
    <!-- Generator: Sketch 58 (84663) - https://sketch.com -->
    <title>公共/隐藏</title>
    <desc>Created with Sketch.</desc>
    <g id="页面-1" stroke="none" stroke-width="1" fill="none" fill-rule="evenodd">
        <g id="添加设备-配置向导-链接wifi" transform="translate(-337.000000, -446.000000)">
            <g id="编组" transform="translate(12.000000, 429.500000)">
                <g id="编组-2" transform="translate(0.000000, 17.000000)">
                    <g id="公共/隐藏icon" transform="translate(325.000000, 0.000000)">
                        <g id="biyan">
                            <rect id="矩形" fill="#D8D8D8" opacity="0" x="0" y="0" width="26" height="26"></rect>
                            <path d="M21.5430556,9.67269965 C21.7298394,9.39405382 21.6655382,9.02352431 21.4205729,8.80609809 C21.1419271,8.58869358 20.7713759,8.6499349 20.5539714,8.92858073 C20.5233507,8.95920139 17.0875868,13.0135417 13.0026476,13.0135417 C9.04019097,13.0135417 5.45130208,8.92858073 5.42068142,8.89796007 C5.20327691,8.64991319 4.80212674,8.61931424 4.55410156,8.83671875 C4.30605469,9.05414497 4.27545573,9.45527344 4.49286024,9.70332031 C4.55410156,9.79518229 5.29819878,10.6311632 6.47408854,11.5590061 L4.89401042,13.2003255 C4.64596354,13.4483724 4.6765625,13.8495009 4.92460938,14.0669271 C4.98585069,14.1894097 5.14203559,14.2537109 5.29513889,14.2537109 C5.45130208,14.2537109 5.60442708,14.1924696 5.72996962,14.0669271 L7.43253038,12.3031033 C8.23789063,12.8604167 9.19635417,13.3871094 10.2497396,13.7576389 L9.60056424,15.9562934 C9.50870226,16.2961806 9.69242622,16.6360894 10.035395,16.731033 L10.2221788,16.731033 C10.5008247,16.731033 10.7488715,16.5442274 10.8101128,16.2655599 L11.4593099,14.0669271 C11.9553819,14.1587891 12.4820747,14.2230903 13.0057075,14.2230903 C13.5324002,14.2230903 14.0590929,14.161849 14.552105,14.0669271 L15.2012804,16.2349392 C15.2625217,16.5135851 15.5411892,16.7003906 15.7892144,16.7003906 C15.8504774,16.7003906 15.9117188,16.7003906 15.9453993,16.6697917 C16.2852865,16.577908 16.472092,16.2349392 16.38023,15.8950521 L15.7218533,13.7270182 C16.7752387,13.3564887 17.7337023,12.829796 18.5390625,12.2724826 L20.2110026,14.0056858 C20.3334852,14.1281684 20.4896484,14.1924696 20.6458333,14.1924696 C20.8020182,14.1924696 20.9551215,14.1312283 21.0806641,14.0056858 C21.3287109,13.7576389 21.3287109,13.3871094 21.1112847,13.1390842 L19.5342665,11.4977648 C20.7989366,10.5699219 21.5430556,9.67267795 21.5430556,9.67267795 L21.5430556,9.67269965 Z" id="路径" fill="#666666" fill-rule="nonzero"></path>
                        </g>
                    </g>
                </g>
            </g>
        </g>
    </g>
</svg>