<?xml version="1.0" encoding="UTF-8"?>
<svg width="46px" height="46px" viewBox="0 0 46 46" version="1.1" xmlns="http://www.w3.org/2000/svg" xmlns:xlink="http://www.w3.org/1999/xlink">
    <!-- Generator: Sketch 58 (84663) - https://sketch.com -->
    <title>娱乐房</title>
    <desc>Created with Sketch.</desc>
    <g id="页面-1" stroke="none" stroke-width="1" fill="none" fill-rule="evenodd">
        <g id="添加房间" transform="translate(-27.000000, -405.000000)">
            <g id="组件备份" transform="translate(12.000000, 150.000000)">
                <g id="娱乐房" transform="translate(0.000000, 240.000000)">
                    <g id="客厅">
                        <g id="编组" transform="translate(15.000000, 15.000000)">
                            <g id="公共/添加房间/娱乐室">
                                <g>
                                    <rect id="矩形" stroke="#979797" fill="#D8D8D8" opacity="0" x="0" y="0" width="46" height="46"></rect>
                                    <g id="编组-9" transform="translate(3.833333, 7.257778)" fill="#666666">
                                        <path d="M10.0177778,10.837638 L27.9066667,10.837638 C33.4393326,10.837638 37.9244444,15.3227499 37.9244444,20.8554158 C37.9244444,26.3880817 33.4393326,30.8731935 27.9066667,30.8731935 L10.0177778,30.8731935 C4.48511188,30.8731935 0,26.3880817 0,20.8554158 C0,15.3227499 4.48511188,10.837638 10.0177778,10.837638 Z M10.0177778,12.9843046 C5.67068315,12.9843046 2.14666667,16.5083211 2.14666667,20.8554158 C2.14666667,25.2025104 5.67068315,28.7265269 10.0177778,28.7265269 L27.9066667,28.7265269 C32.2537613,28.7265269 35.7777778,25.2025104 35.7777778,20.8554158 C35.7777778,16.5083211 32.2537613,12.9843046 27.9066667,12.9843046 L10.0177778,12.9843046 Z" id="矩形" fill-rule="nonzero"></path>
                                        <path d="M16.9457712,11.1322864 C16.5940965,11.6094862 16.6958547,12.2814218 17.1730545,12.6330966 C17.6502544,12.9847713 18.32219,12.8830131 18.6738647,12.4058132 L22.8350389,6.85409673 C23.3883202,6.10332973 22.7867896,5.05273457 21.8592428,5.14983318 L17.6573205,5.58970401 L20.8674675,1.76319901 C21.248456,1.30905961 21.1891554,0.632054713 20.735016,0.251066252 C20.2808766,-0.12992221 19.6038717,-0.070621655 19.2228833,0.383517748 L14.3065968,6.24374621 C13.686366,6.98306312 14.2808566,8.10156002 15.2406383,8.00108697 L19.6644138,7.53799181 L16.9457712,11.1322864 Z" id="路径-2" fill-rule="nonzero"></path>
                                        <rect id="矩形" x="10.0177778" y="17.0220824" width="2.14666667" height="7.66666667" rx="0.84"></rect>
                                        <path d="M10.8577778,17.0220824 L11.3244444,17.0220824 C11.7883636,17.0220824 12.1644444,17.3981632 12.1644444,17.8620824 L12.1644444,23.8487491 C12.1644444,24.3126683 11.7883636,24.6887491 11.3244444,24.6887491 L10.8577778,24.6887491 C10.3938586,24.6887491 10.0177778,24.3126683 10.0177778,23.8487491 L10.0177778,17.8620824 C10.0177778,17.3981632 10.3938586,17.0220824 10.8577778,17.0220824 Z" id="矩形备份-7" transform="translate(11.091111, 20.855416) rotate(-270.000000) translate(-11.091111, -20.855416) "></path>
                                        <path d="M26.6288889,24.6887491 C28.7459804,24.6887491 30.4622222,22.9725073 30.4622222,20.8554158 C30.4622222,18.7383242 28.7459804,17.0220824 26.6288889,17.0220824 C24.5117973,17.0220824 22.7955556,18.7383242 22.7955556,20.8554158 C22.7955556,22.9725073 24.5117973,24.6887491 26.6288889,24.6887491 Z M26.6288889,22.797638 C25.5562292,22.797638 24.6866667,21.9280755 24.6866667,20.8554158 C24.6866667,19.782756 25.5562292,18.9131935 26.6288889,18.9131935 C27.7015486,18.9131935 28.5711111,19.782756 28.5711111,20.8554158 C28.5711111,21.9280755 27.7015486,22.797638 26.6288889,22.797638 Z" id="椭圆形" fill-rule="nonzero"></path>
                                    </g>
                                </g>
                            </g>
                        </g>
                    </g>
                </g>
            </g>
        </g>
    </g>
</svg>