<?xml version="1.0" encoding="UTF-8"?>
<svg width="46px" height="46px" viewBox="0 0 46 46" version="1.1" xmlns="http://www.w3.org/2000/svg" xmlns:xlink="http://www.w3.org/1999/xlink">
    <!-- Generator: Sketch 58 (84663) - https://sketch.com -->
    <title>浴室</title>
    <desc>Created with Sketch.</desc>
    <g id="页面-1" stroke="none" stroke-width="1" fill="none" fill-rule="evenodd">
        <g id="添加房间" transform="translate(-27.000000, -285.000000)">
            <g id="组件备份" transform="translate(12.000000, 150.000000)">
                <g id="浴室" transform="translate(0.000000, 120.000000)">
                    <g id="客厅">
                        <g id="编组" transform="translate(15.000000, 15.000000)">
                            <g id="公共/添加房间/浴室">
                                <g>
                                    <rect id="矩形" fill="#D8D8D8" opacity="0" x="0" y="0" width="46" height="46"></rect>
                                    <g id="编组-9" transform="translate(5.750000, 5.750000)" fill="#666666">
                                        <path d="M3.08035714,14.7857143 L31.4196429,14.7857143 C33.1208771,14.7857143 34.5,16.1648372 34.5,17.8660714 C34.5,19.5673057 33.1208771,20.9464286 31.4196429,20.9464286 L3.08035714,20.9464286 C1.37912287,20.9464286 0,19.5673057 0,17.8660714 C0,16.1648372 1.37912287,14.7857143 3.08035714,14.7857143 Z M3.08035714,17.0149451 C2.61029303,17.0149451 2.22923077,17.3960073 2.22923077,17.8660714 C2.22923077,18.3361355 2.61029303,18.7171978 3.08035714,18.7171978 L31.4196429,18.7171978 C31.889707,18.7171978 32.2707692,18.3361355 32.2707692,17.8660714 C32.2707692,17.3960073 31.889707,17.0149451 31.4196429,17.0149451 L3.08035714,17.0149451 Z" id="矩形" fill-rule="nonzero"></path>
                                        <path d="M1.34967033,18.7968132 L33.1503297,18.7968132 L33.1503297,24.3660989 C33.1503297,28.6458809 29.6808809,32.1153297 25.4010989,32.1153297 L9.0989011,32.1153297 C4.81911912,32.1153297 1.34967033,28.6458809 1.34967033,24.3660989 L1.34967033,18.7968132 Z M3.5789011,21.026044 L3.5789011,24.3660989 C3.5789011,27.4147107 6.05028928,29.8860989 9.0989011,29.8860989 L25.4010989,29.8860989 C28.4497107,29.8860989 30.9210989,27.4147107 30.9210989,24.3660989 L30.9210989,21.026044 L3.5789011,21.026044 Z" id="矩形" fill-rule="nonzero"></path>
                                        <rect id="矩形" x="8.625" y="30.8035714" width="2.07" height="2.46428571" rx="0.84"></rect>
                                        <path d="M28.3392857,0 C30.2718878,0 31.8385714,1.56668358 31.8385714,3.49928571 L31.8385714,16.8557143 L24.84,16.8557143 L24.8397679,16.017 L28.3392857,16.0178571 L28.3387679,14.785 L29.7685714,14.7857143 L29.7685714,3.49928571 C29.7685714,2.70991301 29.1286584,2.07 28.3392857,2.07 C27.549913,2.07 26.91,2.70991301 26.91,3.49928571 L26.9097679,4.928 L24.8397679,4.928 L24.84,3.49928571 C24.84,1.56668358 26.4066836,0 28.3392857,0 Z" id="形状结合" fill-rule="nonzero"></path>
                                        <rect id="矩形备份-7" x="23.8296429" y="30.8035714" width="2.07" height="2.46428571" rx="0.84"></rect>
                                        <rect id="矩形" x="23.2382143" y="3.69642857" width="4.92857143" height="2.07" rx="0.84"></rect>
                                    </g>
                                </g>
                            </g>
                        </g>
                    </g>
                </g>
            </g>
        </g>
    </g>
</svg>