<?xml version="1.0" encoding="UTF-8"?>
<svg width="100px" height="100px" viewBox="0 0 100 100" version="1.1" xmlns="http://www.w3.org/2000/svg" xmlns:xlink="http://www.w3.org/1999/xlink">
    <!-- Generator: Sketch 58 (84663) - https://sketch.com -->
    <title>公共/灰色加载icon</title>
    <desc>Created with Sketch.</desc>
    <g id="页面-1" stroke="none" stroke-width="1" fill="none" fill-rule="evenodd">
        <g id="净水器-设备界面-固件升级-需要升级" transform="translate(-137.000000, -186.000000)">
            <g id="公共/灰色加载icon-2" transform="translate(137.000000, 186.000000)">
                <g id="固件升级/加载后">
                    <g>
                        <rect id="矩形" fill="#D8D8D8" opacity="0" x="0" y="0" width="100" height="100"></rect>
                        <g id="编组-10" transform="translate(17.111111, 17.111111)" fill="#32BAC0">
                            <path d="M62.9483791,19.5244846 C57.7058378,7.74927092 46.0049426,0 32.8888889,0 C14.7248571,0 0,14.7248571 0,32.8888889 C0,34.1775533 1.04466892,35.2222222 2.33333333,35.2222222 C3.62199775,35.2222222 4.66666667,34.1775533 4.66666667,32.8888889 C4.66666667,17.302186 17.302186,4.66666667 32.8888889,4.66666667 C44.1451393,4.66666667 54.185665,11.3163078 58.6851506,21.4225522 C59.2092875,22.5998102 60.5885406,23.1292695 61.7657986,22.6051326 C62.9430567,22.0809957 63.472516,20.7017426 62.9483791,19.5244846 Z" id="路径" fill-rule="nonzero"></path>
                            <path d="M66.2222222,10.2222222 L66.2222222,23.7555556 C66.2222222,24.1973834 65.86405,24.5555556 65.4222222,24.5555556 L51.8888889,24.5555556 C50.6002245,24.5555556 49.5555556,23.5108866 49.5555556,22.2222222 C49.5555556,20.9334704 50.6001371,19.8886471 51.8888888,19.8883488 L61.5555556,19.8861111 L61.5555556,19.8861111 L61.5555556,10.2222222 C61.5555556,8.93355781 62.6002245,7.88888889 63.8888889,7.88888889 C65.1775533,7.88888889 66.2222222,8.93355781 66.2222222,10.2222222 Z" id="路径"></path>
                        </g>
                        <g id="编组-10备份" transform="translate(50.444444, 65.722222) scale(-1, -1) translate(-50.444444, -65.722222) translate(17.111111, 47.666667)" fill="#32BAC0">
                            <path d="M62.9483791,19.5244846 C57.7058378,7.74927092 46.0049426,0 32.8888889,0 C14.7248571,0 0,14.7248571 0,32.8888889 C0,34.1775533 1.04466892,35.2222222 2.33333333,35.2222222 C3.62199775,35.2222222 4.66666667,34.1775533 4.66666667,32.8888889 C4.66666667,17.302186 17.302186,4.66666667 32.8888889,4.66666667 C44.1451393,4.66666667 54.185665,11.3163078 58.6851506,21.4225522 C59.2092875,22.5998102 60.5885406,23.1292695 61.7657986,22.6051326 C62.9430567,22.0809957 63.472516,20.7017426 62.9483791,19.5244846 Z" id="路径" fill-rule="nonzero"></path>
                            <path d="M66.2222222,10.2222222 L66.2222222,23.7555556 C66.2222222,24.1973834 65.86405,24.5555556 65.4222222,24.5555556 L51.8888889,24.5555556 C50.6002245,24.5555556 49.5555556,23.5108866 49.5555556,22.2222222 C49.5555556,20.9334704 50.6001371,19.8886471 51.8888888,19.8883488 L61.5555556,19.8861111 L61.5555556,19.8861111 L61.5555556,10.2222222 C61.5555556,8.93355781 62.6002245,7.88888889 63.8888889,7.88888889 C65.1775533,7.88888889 66.2222222,8.93355781 66.2222222,10.2222222 Z" id="路径"></path>
                        </g>
                    </g>
                </g>
            </g>
        </g>
    </g>
</svg>