<?xml version="1.0" encoding="UTF-8"?>
<svg width="100px" height="100px" viewBox="0 0 100 100" version="1.1" xmlns="http://www.w3.org/2000/svg" xmlns:xlink="http://www.w3.org/1999/xlink">
    <!-- Generator: Sketch 58 (84663) - https://sketch.com -->
    <title>公共/灰色加载icon</title>
    <desc>Created with Sketch.</desc>
    <g id="页面-1" stroke="none" stroke-width="1" fill="none" fill-rule="evenodd">
        <g id="净水器-设备界面-固件升级-更新中" transform="translate(-137.000000, -186.000000)">
            <g id="编组-2" transform="translate(137.000000, 186.000000)">
                <g id="固件升级/更新中">
                    <g id="编组-10">
                        <rect id="矩形" fill="#D8D8D8" opacity="0" x="0" y="0" width="100" height="100"></rect>
                        <path d="M50,85.6666667 C69.6981561,85.6666667 85.6666667,69.6981561 85.6666667,50 C85.6666667,30.3018439 69.6981561,14.3333333 50,14.3333333 C30.3018439,14.3333333 14.3333333,30.3018439 14.3333333,50 C14.3333333,69.6981561 30.3018439,85.6666667 50,85.6666667 Z M50,81 C32.8791728,81 19,67.1208272 19,50 C19,32.8791728 32.8791728,19 50,19 C67.1208272,19 81,32.8791728 81,50 C81,67.1208272 67.1208272,81 50,81 Z" id="椭圆形" fill-opacity="0.199300699" fill="#32BAC0" fill-rule="nonzero"></path>
                        <path d="M74.1371242,23.7412223 C67.6005649,17.7298772 59.0625737,14.3333333 50,14.3333333 C48.7113356,14.3333333 47.6666667,15.3780023 47.6666667,16.6666667 C47.6666667,17.9553311 48.7113356,19 50,19 C57.880818,19 65.2946987,21.9493555 70.9781788,27.1761664 C71.9267124,28.0484851 73.4028049,27.9867007 74.2751236,27.0381671 C75.1474423,26.0896334 75.0856579,24.613541 74.1371242,23.7412223 Z" id="路径" fill="#32BAC0" fill-rule="nonzero"></path>
                    </g>
                </g>
            </g>
        </g>
    </g>
</svg>